<svg xmlns="http://www.w3.org/2000/svg" width="24" height="19" viewBox="0 0 24 19"><g><g><path d="M24 2.423v14.154a2.12 2.12 0 0 1-2.11 2.123H2.11A2.12 2.12 0 0 1 0 16.577V2.423A2.12 2.12 0 0 1 2.11.3h19.78A2.12 2.12 0 0 1 24 2.423zM2.407 1.715l9.638 9.617 9.554-9.617zM8.18 9.467L1.406 2.71v13.575zm13.42 7.817l-6.74-6.783-2.315 2.33a.7.7 0 0 1-.992.002l-2.375-2.37-6.776 6.821zm.995-14.568L15.854 9.5l6.74 6.784z"/><path fill="#fba93d" d="M24 2.423v14.154a2.12 2.12 0 0 1-2.11 2.123H2.11A2.12 2.12 0 0 1 0 16.577V2.423A2.12 2.12 0 0 1 2.11.3h19.78A2.12 2.12 0 0 1 24 2.423zM2.407 1.715l9.638 9.617 9.554-9.617zM8.18 9.467L1.406 2.71v13.575zm13.42 7.817l-6.74-6.783-2.315 2.33a.7.7 0 0 1-.992.002l-2.375-2.37-6.776 6.821zm.995-14.568L15.854 9.5l6.74 6.784z"/></g></g></svg>