<svg xmlns="http://www.w3.org/2000/svg" width="20" height="26" viewBox="0 0 20 26"><g><g><path d="M10.334.655C3.598.655.016 4.971.016 9.676c0 2.183 1.22 4.904 3.172 5.767.296.134.458.077.524-.198.058-.21.315-1.215.44-1.69a.434.434 0 0 0-.105-.426c-.648-.75-1.163-2.115-1.163-3.396 0-3.282 2.61-6.468 7.05-6.468 3.841 0 6.528 2.494 6.528 6.061 0 4.032-2.134 6.82-4.907 6.82-1.534 0-2.677-1.204-2.315-2.693.438-1.774 1.297-3.681 1.297-4.96 0-1.148-.648-2.097-1.973-2.097-1.562 0-2.829 1.546-2.829 3.623 0 1.319.467 2.21.467 2.21l-1.833 7.406c-.485 1.974.066 5.17.114 5.445.03.152.2.2.295.075.152-.2 2.02-2.864 2.544-4.79.19-.702.972-3.548.972-3.548.515.93 2 1.708 3.582 1.708 4.707 0 8.108-4.136 8.108-9.268-.017-4.92-4.229-8.602-9.65-8.602z"/><path fill="#fff" d="M10.334.655C3.598.655.016 4.971.016 9.676c0 2.183 1.22 4.904 3.172 5.767.296.134.458.077.524-.198.058-.21.315-1.215.44-1.69a.434.434 0 0 0-.105-.426c-.648-.75-1.163-2.115-1.163-3.396 0-3.282 2.61-6.468 7.05-6.468 3.841 0 6.528 2.494 6.528 6.061 0 4.032-2.134 6.82-4.907 6.82-1.534 0-2.677-1.204-2.315-2.693.438-1.774 1.297-3.681 1.297-4.96 0-1.148-.648-2.097-1.973-2.097-1.562 0-2.829 1.546-2.829 3.623 0 1.319.467 2.21.467 2.21l-1.833 7.406c-.485 1.974.066 5.17.114 5.445.03.152.2.2.295.075.152-.2 2.02-2.864 2.544-4.79.19-.702.972-3.548.972-3.548.515.93 2 1.708 3.582 1.708 4.707 0 8.108-4.136 8.108-9.268-.017-4.92-4.229-8.602-9.65-8.602z"/></g></g></svg>