<svg xmlns="http://www.w3.org/2000/svg" width="46" height="30" viewBox="0 0 46 30"><g><g><path d="M24.875 11.16v7.68c0 .53-.42.96-.938.96a.95.95 0 0 1-.937-.96v-4.334l-2.955 4.843c-.341.56-1.249.56-1.59 0L15.5 14.506v4.334c0 .53-.42.96-.938.96h-1.875c-.429 0-.806-.3-.909-.728l-.291-1.192H7.062a.915.915 0 0 1-.327-.06l-.708 1.45a.94.94 0 0 1-.84.53.93.93 0 0 1-.42-.102.973.973 0 0 1-.42-1.288l3.75-7.68a.942.942 0 0 1 .84-.53h1.875c.43 0 .807.3.91.727l1.699 6.953h.204v-6.72c0-.429.276-.805.679-.922a.927.927 0 0 1 1.053.413l3.893 6.378 3.893-6.378a.924.924 0 0 1 1.053-.413.953.953 0 0 1 .679.922zm-14.796.96h-.562l-1.874 3.84h3.375zm31.395 6.04a.977.977 0 0 1 0 1.358.918.918 0 0 1-1.325.002l-3.087-3.163-3.086 3.16a.927.927 0 0 1-.664.283h-5.625a.95.95 0 0 1-.937-.96v-7.68c0-.53.42-.96.937-.96h5.625c.25 0 .488.101.664.28l3.086 3.16 3.087-3.16a.923.923 0 0 1 1.325 0 .977.977 0 0 1 0 1.357L38.388 15zM35.737 15l-2.813-2.88h-4.3v1.92H30.5a.95.95 0 0 1 .937.96c0 .53-.42.96-.937.96h-1.875v1.92h4.3zM45.5 7.32v15.36c0 3.705-2.944 6.72-6.563 6.72H7.062C3.444 29.4.5 26.385.5 22.68V7.32C.5 3.614 3.444.6 7.062.6h31.875c3.62 0 6.563 3.014 6.563 6.72zm-1.875 0c0-2.646-2.102-4.8-4.688-4.8H7.062c-2.585 0-4.687 2.154-4.687 4.8v15.36c0 2.645 2.102 4.8 4.687 4.8h31.875c2.586 0 4.688-2.155 4.688-4.8z"/><path fill="#fff" d="M24.875 11.16v7.68c0 .53-.42.96-.938.96a.95.95 0 0 1-.937-.96v-4.334l-2.955 4.843c-.341.56-1.249.56-1.59 0L15.5 14.506v4.334c0 .53-.42.96-.938.96h-1.875c-.429 0-.806-.3-.909-.728l-.291-1.192H7.062a.915.915 0 0 1-.327-.06l-.708 1.45a.94.94 0 0 1-.84.53.93.93 0 0 1-.42-.102.973.973 0 0 1-.42-1.288l3.75-7.68a.942.942 0 0 1 .84-.53h1.875c.43 0 .807.3.91.727l1.699 6.953h.204v-6.72c0-.429.276-.805.679-.922a.927.927 0 0 1 1.053.413l3.893 6.378 3.893-6.378a.924.924 0 0 1 1.053-.413.953.953 0 0 1 .679.922zm-14.796.96h-.562l-1.874 3.84h3.375zm31.395 6.04a.977.977 0 0 1 0 1.358.918.918 0 0 1-1.325.002l-3.087-3.163-3.086 3.16a.927.927 0 0 1-.664.283h-5.625a.95.95 0 0 1-.937-.96v-7.68c0-.53.42-.96.937-.96h5.625c.25 0 .488.101.664.28l3.086 3.16 3.087-3.16a.923.923 0 0 1 1.325 0 .977.977 0 0 1 0 1.357L38.388 15zM35.737 15l-2.813-2.88h-4.3v1.92H30.5a.95.95 0 0 1 .937.96c0 .53-.42.96-.937.96h-1.875v1.92h4.3zM45.5 7.32v15.36c0 3.705-2.944 6.72-6.563 6.72H7.062C3.444 29.4.5 26.385.5 22.68V7.32C.5 3.614 3.444.6 7.062.6h31.875c3.62 0 6.563 3.014 6.563 6.72zm-1.875 0c0-2.646-2.102-4.8-4.688-4.8H7.062c-2.585 0-4.687 2.154-4.687 4.8v15.36c0 2.645 2.102 4.8 4.687 4.8h31.875c2.586 0 4.688-2.155 4.688-4.8z"/></g></g></svg>