<svg xmlns="http://www.w3.org/2000/svg" width="54" height="26" viewBox="0 0 54 26"><g><g><path d="M37.328 2.287V3.89h2.53v1.223h-2.53v1.95h2.626v1.224h-4.055V1.06h4.055v1.226zm8.932 6.002h-1.762L42.52 5.386h-.186v2.903h-1.429V1.063h2.121c1.65 0 2.596.781 2.596 2.134 0 1.107-.595 1.832-1.671 2.048zm-2.11-5.017c0-.703-.484-1.07-1.375-1.07h-.44v2.187h.415c.914 0 1.4-.39 1.4-1.117zm2.662-1.8a.557.557 0 0 1-.554.554.557.557 0 0 1-.564-.554c0-.307.25-.553.564-.553.302 0 .554.25.554.553zm-.114.001a.453.453 0 0 0-.446-.454.45.45 0 0 0-.445.454c0 .251.203.454.445.454a.45.45 0 0 0 .446-.454zm-.159.318h-.188l-.18-.247v.247h-.154v-.635h.207c.157 0 .246.068.246.196 0 .089-.05.154-.14.178zm-.226-.437c0-.055-.039-.082-.115-.082h-.027v.165h.025c.076 0 .117-.026.117-.083zM7.24 1.06h1.43v7.226H7.24zm7.031 5.027c0 1.398-1.043 2.373-2.53 2.373-1.087 0-1.878-.423-2.538-1.377l.925-.877c.328.627.88.964 1.56.964.639 0 1.111-.435 1.111-1.02 0-.303-.142-.564-.43-.748-.143-.087-.427-.216-.988-.411-1.343-.476-1.802-.986-1.802-1.981 0-1.182.986-2.07 2.284-2.07.804 0 1.539.271 2.156.8l-.749.968c-.373-.413-.726-.586-1.153-.586-.617 0-1.067.345-1.067.8 0 .39.253.598 1.112.91 1.625.586 2.108 1.107 2.11 2.255zm39.188 5.217v13.836H14.535c25.178-4.279 38.924-13.836 38.924-13.836zM6.575 4.681a3.598 3.598 0 0 1-1.33 2.772c-.706.575-1.507.836-2.615.836H.541V1.063h2.097c2.32-.002 3.937 1.484 3.937 3.618zm-1.473-.013c0-.693-.298-1.365-.793-1.798-.473-.421-1.033-.584-1.955-.584H1.97v4.778h.384c.923 0 1.507-.176 1.955-.575.496-.433.793-1.125.793-1.821zm30.15-3.605l-3.168 7.408h-.767l-3.113-7.408h1.563l1.955 4.853 1.982-4.853zm-6.6 3.634c0 .267-.026.527-.08.777-.011.055-.028.11-.04.167-.02.066-.034.134-.057.2-.49 1.565-1.975 2.701-3.725 2.701-2.153 0-3.899-1.721-3.899-3.843 0-.53.107-1.036.306-1.496A3.901 3.901 0 0 1 24.75.856c2.156 0 3.901 1.72 3.901 3.841zm-12.456-.03c0 1.464 1.02 2.493 2.461 2.493.648 0 1.154-.228 1.726-.792v1.659c-.649.303-1.176.42-1.793.42-2.178 0-3.87-1.645-3.868-3.767 0-2.1 1.737-3.781 3.903-3.781.615 0 1.132.13 1.76.444V3c-.593-.573-1.111-.813-1.794-.813-1.341 0-2.395 1.096-2.395 2.48z"/><path fill="#fff" d="M37.328 2.287V3.89h2.53v1.223h-2.53v1.95h2.626v1.224h-4.055V1.06h4.055v1.226zm8.932 6.002h-1.762L42.52 5.386h-.186v2.903h-1.429V1.063h2.121c1.65 0 2.596.781 2.596 2.134 0 1.107-.595 1.832-1.671 2.048zm-2.11-5.017c0-.703-.484-1.07-1.375-1.07h-.44v2.187h.415c.914 0 1.4-.39 1.4-1.117zm2.662-1.8a.557.557 0 0 1-.554.554.557.557 0 0 1-.564-.554c0-.307.25-.553.564-.553.302 0 .554.25.554.553zm-.114.001a.453.453 0 0 0-.446-.454.45.45 0 0 0-.445.454c0 .251.203.454.445.454a.45.45 0 0 0 .446-.454zm-.159.318h-.188l-.18-.247v.247h-.154v-.635h.207c.157 0 .246.068.246.196 0 .089-.05.154-.14.178zm-.226-.437c0-.055-.039-.082-.115-.082h-.027v.165h.025c.076 0 .117-.026.117-.083zM7.24 1.06h1.43v7.226H7.24zm7.031 5.027c0 1.398-1.043 2.373-2.53 2.373-1.087 0-1.878-.423-2.538-1.377l.925-.877c.328.627.88.964 1.56.964.639 0 1.111-.435 1.111-1.02 0-.303-.142-.564-.43-.748-.143-.087-.427-.216-.988-.411-1.343-.476-1.802-.986-1.802-1.981 0-1.182.986-2.07 2.284-2.07.804 0 1.539.271 2.156.8l-.749.968c-.373-.413-.726-.586-1.153-.586-.617 0-1.067.345-1.067.8 0 .39.253.598 1.112.91 1.625.586 2.108 1.107 2.11 2.255zm39.188 5.217v13.836H14.535c25.178-4.279 38.924-13.836 38.924-13.836zM6.575 4.681a3.598 3.598 0 0 1-1.33 2.772c-.706.575-1.507.836-2.615.836H.541V1.063h2.097c2.32-.002 3.937 1.484 3.937 3.618zm-1.473-.013c0-.693-.298-1.365-.793-1.798-.473-.421-1.033-.584-1.955-.584H1.97v4.778h.384c.923 0 1.507-.176 1.955-.575.496-.433.793-1.125.793-1.821zm30.15-3.605l-3.168 7.408h-.767l-3.113-7.408h1.563l1.955 4.853 1.982-4.853zm-6.6 3.634c0 .267-.026.527-.08.777-.011.055-.028.11-.04.167-.02.066-.034.134-.057.2-.49 1.565-1.975 2.701-3.725 2.701-2.153 0-3.899-1.721-3.899-3.843 0-.53.107-1.036.306-1.496A3.901 3.901 0 0 1 24.75.856c2.156 0 3.901 1.72 3.901 3.841zm-12.456-.03c0 1.464 1.02 2.493 2.461 2.493.648 0 1.154-.228 1.726-.792v1.659c-.649.303-1.176.42-1.793.42-2.178 0-3.87-1.645-3.868-3.767 0-2.1 1.737-3.781 3.903-3.781.615 0 1.132.13 1.76.444V3c-.593-.573-1.111-.813-1.794-.813-1.341 0-2.395 1.096-2.395 2.48z"/></g></g></svg>