<svg xmlns="http://www.w3.org/2000/svg" width="34" height="26" viewBox="0 0 34 26"><g><g><path d="M22.268.018v21.627a4.622 4.622 0 0 1-.076.814c-.014.064-.025.13-.043.193a2.37 2.37 0 0 1-.041.16 1.637 1.637 0 0 1-.04.14 1.517 1.517 0 0 1-.042.125c-.014.038-.025.076-.04.114-.015.037-.026.07-.042.105l-.04.099c-.015.029-.027.06-.041.09l-.041.085c-.014.026-.027.057-.041.081-.014.027-.027.053-.043.078a.725.725 0 0 1-.041.074 1.242 1.242 0 0 1-.04.07c-.013.022-.026.045-.04.066a.563.563 0 0 0-.04.063c-.017.022-.028.042-.042.063-.016.02-.029.04-.043.062a1.454 1.454 0 0 0-.04.058l-.042.057-.04.055a6.337 6.337 0 0 1-.123.156l-.041.047c-.014.017-.027.032-.041.046-.014.017-.025.03-.041.046l-.041.044a4.199 4.199 0 0 0-.04.042l-.042.041-.04.042c-.017.014-.028.026-.044.04-.014.014-.025.025-.04.037-.015.015-.026.024-.042.038l-.04.038a.716.716 0 0 1-.041.033c-.014.015-.027.023-.041.036l-.041.033-.041.033c-.016.01-.027.02-.041.03-.016.01-.027.022-.043.032-.014.009-.025.02-.04.03-.015.009-.026.019-.042.029-.014.008-.027.02-.04.027-.017.01-.028.023-.042.03-.014.007-.027.017-.04.026-.017.006-.028.016-.044.027-.014.007-.025.017-.04.025-.014.007-.025.016-.041.026l-.041.023c-.014.005-.025.015-.041.024-.014.005-.025.014-.041.023l-.082.043-.041.02c-.014.007-.027.016-.041.022-.014.008-.027.016-.04.022l-.042.021a.63.63 0 0 1-.082.04.381.381 0 0 1-.04.02l-.041.021-.041.017-.041.019-.041.017-.041.017-.043.018-.041.014-.04.015-.042.018a.328.328 0 0 0-.04.014l-.042.012a.28.28 0 0 1-.04.014l-.042.012-.04.014c-.016.004-.028.006-.041.011l-.043.012-.041.01c-.014.005-.026.009-.041.01l-.041.01-.041.01c-.016.005-.027.009-.042.01a.39.39 0 0 0-.04.01l-.042.008-.04.008a.292.292 0 0 1-.042.008l-.04.006-.042.006-.041.006-.041.006-.041.004-.042.006-.041.004-.042.004-.041.004c-.014 0-.027 0-.04.002l-.042.002-.04.002-.042.002h-.04c-.015.003-.028.003-.041.003H11.75v-9.99c.028.025.058.051.088.075.013.012.027.02.04.033.015.01.028.021.041.031.015.01.027.023.041.032l.041.03c.013.008.027.019.041.03a.407.407 0 0 1 .041.028l.041.027c.015.006.028.018.042.026l.041.028a.258.258 0 0 1 .042.025c.014.007.027.017.04.026l.042.024c.014.004.027.015.04.023.015.007.028.015.042.023l.04.018.041.022.041.022c.014.005.027.013.041.021.014.006.027.014.041.022l.041.02.042.021.041.02.042.021.04.021.042.02.04.02.042.018.04.019.041.02.041.019.041.016.042.018.041.017c.014.004.027.01.041.018l.041.014c.014.006.027.012.04.016l.042.016.042.015.029.021.04.015c.015.005.029.009.041.015l.041.012.042.01.041.014.041.012.041.013.041.012.041.013.042.01.04.013.042.01.04.012.043.01.04.012.041.01.041.01.041.01.042.004.041.01.041.01.041.008.04.008.042.008.042.008.04.009.042.007.04.006.042.008.041.007.042.009.041.006.041.008.041.006.041.006.04.008.042.002.04.006.042.006.04.007.042.004.04.007.041.004.042.007.041.004.041.004.041.004.04.006.042.004.04.004.042.002.04.004.042.004.041.002.041.004.041.002.041.004.041.003.042.004.041.002.082.004.038-.006.04.002.042.002.04.002h.041l.042.002.041.003.041.002h.041l.041.002h.041l.042.002h.082l.04.002h.433l.04-.002h.165l.041-.002h.042l.041-.002h.041l.042-.002h.041l.042-.003.082-.004h.04l.042-.002h.04l.041-.002.041-.002.043-.002.041-.003.041-.004.041-.002.041-.004.04-.002.042-.004.04.002.042-.004.04-.004.042-.002.04-.002.04-.004.082-.008.043-.004.041-.004.04-.005.041-.004.042-.004.04-.007.042-.005.04-.004.042-.006.04-.004.042-.006.041-.006.041-.004.042-.006.082-.012.04-.006.042-.017.04-.007.042-.006.043-.006.04-.007.041-.009.041-.006.041-.006.041-.008.041-.003.041-.006.04-.01.042-.005.043-.008.04-.008.042-.008.04-.006.041-.008.041-.008.041-.006.041-.01.041-.007.041-.01.041-.008.04-.008.042-.006.04-.008.042-.008.04-.01.042-.008.042-.01.041-.008.041-.011.041-.008.041-.008.041-.01.055-.034.04-.01.042-.01.04-.009.042-.01.04-.01.042-.01.042-.01.041-.01.041-.01.041-.012v-1.83l-.04.022-.042.021-.04.021-.043.02-.041.021-.041.022-.041.02-.041.02-.041.02-.041.02-.04.021-.042.02-.043.02-.04.019-.042.018-.04.02-.041.017-.041.02-.043.019-.041.016-.041.018-.041.017-.041.017-.04.017-.042.016-.04.017-.042.016-.04.015-.042.015-.04.017-.041.014-.041.014-.041.015-.041.015-.041.013-.041.014-.041.014-.04.012-.044.013-.04.013-.042.013-.04.013-.041.012-.041.01-.041.012-.041.012-.041.012-.041.01-.043.011-.04.008-.042.01-.04.01-.042.008-.04.01-.042.009-.04.011-.041.008-.041.01-.041.006-.043.008-.041.008-.041.006-.04.006-.042.006-.04.008-.044.008-.04.006-.082.012-.041.007-.041.004-.041.004-.041.006-.041.004-.082.008-.04.005-.04.002-.026.002-.016.002-.04.002-.042.002-.082.004-.041.004-.041.002h-.041l-.041.002h-.248l-.041-.002h-.041c-.014-.002-.027-.002-.041-.002l-.041-.004-.041-.002-.041-.004-.041-.002-.04-.004c-.015 0-.028-.002-.042-.004l-.04-.005-.042-.004-.04-.004-.042-.008-.04-.006-.041-.007-.042-.006-.041-.008a.294.294 0 0 1-.041-.008c-.014-.002-.028-.004-.041-.008a.207.207 0 0 1-.042-.009.295.295 0 0 1-.041-.008c-.014-.004-.027-.006-.04-.011l-.042-.01c-.014-.002-.027-.009-.04-.01-.015-.005-.029-.009-.042-.011l-.042-.012-.04-.012a.567.567 0 0 1-.082-.028.76.76 0 0 0-.041-.013c-.014-.006-.027-.012-.041-.016-.014-.004-.027-.01-.041-.015-.014-.006-.027-.012-.041-.016-.014-.006-.028-.013-.04-.017-.016-.006-.029-.013-.043-.017a.388.388 0 0 1-.04-.02l-.042-.019-.04-.02a.25.25 0 0 1-.041-.022.388.388 0 0 1-.042-.02.153.153 0 0 1-.041-.021c-.014-.006-.028-.015-.041-.021a.224.224 0 0 1-.041-.023c-.014-.005-.027-.016-.041-.023-.014-.006-.027-.018-.041-.024-.014-.007-.027-.02-.041-.026a.2.2 0 0 1-.04-.025c-.015-.008-.028-.018-.042-.027a.218.218 0 0 1-.04-.029c-.016-.009-.029-.02-.043-.03-.014-.01-.028-.02-.04-.032-.015-.01-.029-.021-.041-.031-.014-.015-.028-.022-.041-.036l-.041-.036-.041-.037-.041-.04c-.014-.016-.028-.028-.041-.042l-.041-.046a5.105 5.105 0 0 1-.082-.094l-.04-.05-.042-.055-.042-.059c-.014-.021-.028-.04-.04-.06-.016-.02-.029-.044-.043-.064l-.04-.071-.041-.073a1.582 1.582 0 0 1-.041-.082l-.042-.09-.041-.099a1.954 1.954 0 0 1-.041-.11c-.014-.043-.028-.084-.041-.128a3.11 3.11 0 0 1-.082-.349 4.111 4.111 0 0 1 0-1.361c.012-.067.025-.132.041-.197.012-.052.027-.103.041-.153a4.794 4.794 0 0 1 .082-.24l.04-.097.043-.09.04-.082.042-.075.04-.07.042-.064.041-.062.042-.057.041-.054.041-.051.041-.049.04-.046.042-.044a1.51 1.51 0 0 1 .04-.041l.042-.04.04-.038.042-.037c.013-.012.027-.022.04-.035.013-.012.027-.022.041-.033l.041-.033.042-.03.041-.03c.014-.009.027-.02.041-.028l.041-.027.04-.026c.015-.008.028-.017.042-.026.014-.006.027-.015.04-.023a.61.61 0 0 1 .083-.045l.04-.021.043-.02c.013-.008.026-.015.04-.02l.041-.02.041-.018.041-.019.042-.016.041-.016a.335.335 0 0 1 .04-.015.855.855 0 0 1 .042-.017l.04-.014c.015-.004.028-.01.042-.013.014-.005.027-.008.04-.014l.042-.012.04-.012.042-.012.041-.01.041-.01.041-.01.041-.01.041-.01.042-.007c.013-.004.027-.005.04-.008l.042-.008.04-.006a.592.592 0 0 1 .043-.008l.04-.006.041-.007.041-.006.041-.004.041-.005.041-.004.041-.004.041-.003.04-.003.042-.003.04-.003.042-.002c.014 0 .027 0 .04-.002h.042l.041-.002H17.487l.04.002h.042l.04.002.042.002.082.004.041.002.041.003h.016l.025.002.041.003.04.004.041.003.041.004.06-.01.042.005.04.004.042.005.04.004.041.006.041.005.041.006.042.007.041.006.042.006.041.006.04.008.042.007.042.007.04.008.042.008.04.008.041.008.041.008.042.008.041.01.041.008.041.01.041.01.043.01.04.01.042.01.04.01.042.012.04.011.042.01.04.013.041.012.041.013.043.012.041.013.04.013.04.013.04.014.044.013.04.014.042.014.04.014.041.015.041.014.041.015.082.031.041.016.041.017.04.016.042.017.04.017.042.018.043.017.04.017.041.019.041.018.041.018.041.018.043.019.041.02.082.038.04.02.042.02.04.019.042.021.04.02.043.02.041.022.041.02.041.022V9.129l-.04-.01-.042-.01-.04-.01-.044-.01-.04-.01-.041-.01-.041-.008-.041-.01-.041-.009-.082-.018-.04-.009-.044-.008-.04-.01-.042-.007-.04-.009-.041-.009-.041-.008-.043-.008-.041-.008-.041-.008-.041-.008-.041-.01-.041-.008-.04-.007-.042-.008-.04-.007-.042-.007-.04-.009-.041-.006-.041-.008-.041-.008-.041-.007-.043-.007-.04-.007-.041-.007-.04-.007-.04-.007-.044-.006-.04-.006-.042-.007-.04-.006-.041-.006-.041-.005-.041-.007-.041-.006-.041-.006-.041-.006-.043-.006-.04-.006-.042-.005-.04-.005-.042-.005-.042-.005-.04-.005-.042-.005-.04-.006-.041-.004-.041-.004-.042-.004-.041-.006-.041-.004-.04-.004-.043-.004-.04-.004-.043-.003-.04-.004-.042-.003-.04-.004-.041-.004-.041-.003-.041-.003-.041-.004-.041-.002-.041-.004-.04-.002-.042-.002-.04-.002-.042-.002-.04-.002-.043-.002h-.041l-.041-.003-.041-.002h-.041l-.041-.002h-.041l-.04-.002h-.043l-.04-.002h-.124l-.043-.002h-.081l-.041-.002h-.45l-.042.001h-.082l-.041.002-.042.001h-.041l-.04.001-.042.001-.04.001-.042.001-.042.002-.04.001-.041.002-.082.004-.041.002-.041.002-.041.002-.041.004-.042.002-.04.002-.042.004-.04.002-.042.003-.042.003-.04.003-.041.004-.041.004-.041.004-.041.003-.041.005-.041.004-.04.005-.042.004-.042.006-.04.004-.042.006-.04.006-.041.005-.041.005-.041.006-.041.005-.041.006-.041.007-.04.005-.042.007-.04.008-.043.007-.04.007-.043.007-.04.007-.041.008-.041.008-.042.009-.041.008-.041.008-.041.009-.04.01-.042.008-.042.01-.04.009-.042.01-.04.01-.041.01-.042.01-.041.01-.05.012-.041.011-.042.01-.041.013-.04.012-.042.013-.04.012-.042.012-.042.013-.04.014-.041.013-.041.014-.041.014-.042.016-.041.014-.041.015-.041.015-.04.016-.042.017-.042.016-.04.016-.042.017-.04.018-.041.017-.041.019-.041.018-.082.039-.042.019-.04.021-.043.022-.04.02-.042.022c-.014.008-.027.016-.04.022l-.083.046c-.013.006-.026.015-.04.023-.014.007-.027.016-.041.024l-.041.025a.753.753 0 0 0-.041.025.493.493 0 0 0-.041.026c-.015.008-.028.017-.042.026l-.04.028c-.016.008-.029.018-.043.027l-.04.028a1.934 1.934 0 0 1-.083.06.926.926 0 0 0-.04.03c-.015.01-.027.021-.041.032l-.041.033-.041.033-.088.075V4.347a4.398 4.398 0 0 1 .17-1.214c.013-.045.025-.09.04-.134.013-.04.026-.08.041-.121l.041-.111c.013-.036.027-.07.041-.103l.041-.095.042-.09.041-.084.042-.08.04-.077c.015-.024.028-.049.042-.073l.04-.07a2.1 2.1 0 0 1 .042-.068c.014-.02.027-.042.04-.064l.041-.063.041-.06.041-.057.041-.056.041-.055.042-.052.041-.05.042-.05c.014-.015.027-.03.04-.047l.042-.046.04-.044.042-.044.04-.043a.8.8 0 0 1 .041-.042l.041-.042.041-.038.042-.039.041-.037c.014-.014.027-.025.041-.037l.041-.036.04-.034c.015-.012.028-.024.042-.034l.042-.036.04-.03.042-.032c.014-.01.028-.02.04-.031.014-.008.028-.02.041-.03l.042-.028c.014-.009.027-.02.041-.028.013-.008.027-.019.041-.027l.041-.026c.014-.01.027-.019.041-.027a.47.47 0 0 0 .041-.026l.042-.024.04-.025c.015-.006.028-.014.042-.021a.643.643 0 0 0 .04-.024l.043-.021.04-.021.041-.02.041-.021.041-.02a.33.33 0 0 1 .042-.02l.041-.02.041-.018.04-.019c.015-.006.028-.01.042-.017l.04-.018c.015-.004.028-.01.043-.016l.04-.016.042-.015.04-.015c.015-.007.028-.01.042-.016l.041-.014.042-.014c.014-.004.028-.01.041-.013a.803.803 0 0 1 .041-.013l.041-.012.041-.011.04-.012c.015-.004.028-.008.042-.01a.497.497 0 0 1 .04-.01c.015-.004.028-.008.042-.01l.04-.01.041-.01a.49.49 0 0 1 .041-.007l.041-.008.042-.009.041-.006.041-.009a.715.715 0 0 1 .041-.007L15.4.06l.042-.006.04-.005.042-.004a.426.426 0 0 1 .04-.005l.042-.003.041-.004c.014 0 .027 0 .041-.002l.041-.002c.014 0 .027-.003.041-.003a.482.482 0 0 1 .041-.002h.042c.014-.002.027-.002.041-.005H22.268zm-11.765 0V21.64a4.638 4.638 0 0 1-.076.815 4.167 4.167 0 0 1-.041.194c-.012.054-.026.105-.041.16a5.82 5.82 0 0 1-.082.265l-.04.112a3.066 3.066 0 0 1-.084.204l-.04.09-.042.085a1.614 1.614 0 0 1-.04.081l-.041.078-.041.075a1.389 1.389 0 0 1-.041.068c-.014.02-.027.044-.041.066l-.042.064-.041.063-.041.062-.04.06c-.015.018-.028.038-.042.056a2.197 2.197 0 0 0-.04.055l-.042.053c-.014.018-.027.033-.04.052l-.042.05-.04.049-.041.047a.97.97 0 0 0-.042.045l-.041.044c-.014.016-.028.025-.042.043a1.003 1.003 0 0 0-.041.041l-.041.04-.041.04-.04.04-.042.036-.04.038c-.015.013-.028.022-.042.035l-.04.034-.041.034a3.005 3.005 0 0 1-.247.182l-.04.029-.043.026a.245.245 0 0 0-.04.028.152.152 0 0 0-.042.023c-.013.007-.027.018-.04.026-.015.007-.029.016-.042.024l-.041.024a.2.2 0 0 0-.041.024c-.014.004-.027.012-.041.02a.643.643 0 0 0-.041.023l-.041.022c-.014.005-.027.013-.041.021-.014.009-.027.015-.042.022l-.041.021a.25.25 0 0 0-.04.022c-.015.006-.029.012-.042.019a.423.423 0 0 1-.042.02l-.04.018-.042.019-.04.02c-.014.005-.027.012-.041.018a.403.403 0 0 1-.042.015l-.041.017-.042.015-.041.016-.041.017a.327.327 0 0 0-.04.014l-.042.012-.04.015-.043.012-.04.013-.042.01c-.014.005-.027.01-.041.013-.014.004-.028.008-.041.01-.014.004-.027.008-.041.01l-.041.012-.042.01-.041.01a.294.294 0 0 0-.041.007c-.014.002-.028.007-.04.01l-.043.006-.04.009-.042.006c-.014.004-.028.006-.04.008l-.041.004-.041.006-.042.004-.041.006-.041.004-.041.005-.041.004c-.014 0-.027 0-.041.002l-.04.002-.042.002-.04.002h-.042a.29.29 0 0 1-.042.002h-6.32v-9.119l.088.021.082.02.041.01.042.012.041.011.041.01.041.01.04.008.043.011.04.01.042.007.04.008.041.01.041.01.042.008.041.01.041.008.041.008.042.008.041.008.04.008.042.006.04.01.043.007.04.007.043.008.04.007.041.006.041.009.041.006.041.008.042.006.04.006.043.006.04.007.042.006.04.006.042.008.041.006.041.004.041.008.041.006.042.004.041.006.041.006.041.006.04.004.042.006.042.006.04.006.042.004.081.008.042.006.041.004.082.008.041.004.041.006.042.005.04.004.042.004.04.004.043.004.035.006.041.004.041.004.041.002.042.004.041.002.041.004.041.001.04.003.042.002.042.004.04.002.042.002.04.005.042.002.041.002.042.003.041.002.036.005.042.002.04.002.042.002.04.002h.042l.04.003h.042l.04.002h.042l.041.001h.124l.041.002h.572l.04-.002h.042l.042-.002h.04l.041-.002h.041l.041-.002.041-.003.042-.002.041-.001h.041l.082-.004.04-.002.037-.006.04-.002.043-.005.04-.002.041-.002.042-.002.041-.004.042-.004.041-.002.041-.005.082-.008.04-.006.042-.004.04-.004.042-.006.04-.005.042-.003.041-.007.041-.002.041-.007.041-.007.042.022.041-.008.04-.006c.015-.002.029-.004.042-.008l.04-.006a.306.306 0 0 1 .043-.008l.04-.006.041-.008.041-.01.041-.007c.014-.005.027-.007.041-.01l.041-.009.041-.006.041-.01.04-.008c.016-.005.029-.009.043-.011.014-.004.027-.008.04-.01l.042-.012.04-.012c.015-.002.028-.007.041-.011l.041-.011.042-.013.041-.01.041-.014.041-.014.042-.013.041-.012c.013-.004.027-.01.04-.013l.042-.014.04-.012c.016-.006.029-.01.043-.017l.04-.014.043-.016c.012-.005.027-.01.04-.017.014-.004.027-.01.041-.016.014-.007.027-.012.041-.017l.041-.02.042-.019c.014-.006.028-.013.042-.017l.041-.021.042-.02.04-.021a.323.323 0 0 0 .042-.021l.04-.019.042-.021.042-.021c.013-.006.026-.014.04-.022l.041-.02a.494.494 0 0 0 .041-.024c.015-.006.028-.015.042-.024.014-.005.027-.014.041-.024.014-.006.027-.016.041-.024a.2.2 0 0 0 .041-.025c.014-.007.027-.018.04-.028a.206.206 0 0 0 .042-.026c.015-.007.028-.018.042-.029a.324.324 0 0 0 .04-.03c.015-.008.029-.017.042-.03.014-.01.027-.018.04-.031.016-.011.028-.02.041-.033l.042-.033.041-.036.041-.039c.014-.013.028-.024.041-.038a.777.777 0 0 0 .041-.042c.014-.014.028-.027.041-.042a.594.594 0 0 0 .042-.043.84.84 0 0 0 .082-.096c.014-.016.028-.032.04-.05l.042-.052c.014-.02.027-.037.04-.058l.041-.062.041-.062.041-.067c.014-.021.027-.046.041-.07.014-.022.028-.051.041-.075.015-.027.029-.058.042-.084a2.997 2.997 0 0 0 .165-.432 3.157 3.157 0 0 0 .123-.647c.014-.142.02-.285.02-.431V8.864H5.975v5.02a2.62 2.62 0 0 1-.092.682 1.732 1.732 0 0 1-.041.126c-.013.038-.026.071-.041.125-.013.029-.027.064-.041.091-.013.025-.027.056-.041.081-.013.024-.027.05-.04.071a2.27 2.27 0 0 1-.083.126c-.014.021-.027.037-.04.058-.015.02-.029.034-.043.053l-.04.048a1.496 1.496 0 0 0-.042.044l-.041.044-.041.04-.042.037-.041.034-.041.032-.041.03-.04.03c-.015.008-.028.018-.042.028-.014.006-.027.017-.04.025a.61.61 0 0 0-.042.023c-.015.008-.028.016-.042.022l-.04.023-.041.022-.041.02-.041.02a.626.626 0 0 1-.041.02l-.042.019a.848.848 0 0 1-.082.033.327.327 0 0 0-.04.014l-.042.014-.042.014-.04.012c-.015.004-.028.006-.042.012l-.04.011a.518.518 0 0 0-.041.01l-.041.008-.042.008c-.014.002-.027.006-.041.01l-.041.007-.041.006a.144.144 0 0 1-.041.006l-.04.006-.042.004-.04.004c-.015.002-.029.002-.042.002l-.042.004-.04.002-.042.002-.041.001-.041.001H3.542l-.042-.002h-.04l-.042-.003-.042-.003-.04-.002h-.042l-.041-.004-.041-.002-.041-.004-.042-.002-.041-.004-.04-.004-.042-.005-.04-.005-.042-.004-.042-.006-.04-.007-.041-.006-.041-.004-.041-.006-.042-.007-.041-.007-.041-.008-.041-.007-.042-.008-.04-.006-.042-.01-.04-.008-.042-.01-.04-.008-.042-.008-.082-.019-.041-.01-.041-.01-.042-.011-.041-.01-.04-.014-.042-.01-.04-.011-.042-.01-.042-.011-.04-.013-.041-.013-.041-.011-.042-.014-.041-.012-.041-.013-.041-.012-.04-.014-.043-.015-.04-.016-.043-.012-.04-.014-.042-.016-.04-.015-.041-.015-.041-.017-.042-.014-.041-.016-.042-.017-.041-.015-.041-.018-.04-.016-.042-.017-.042-.017-.04-.018-.042-.018-.04-.018-.042-.018-.041-.017-.041-.02-.041-.019-.041-.018-.041-.02-.042-.017-.04-.02-.042-.019-.04-.02-.042-.02-.042-.02-.04-.021-.041-.021-.041-.02-.088-.044V4.35a4.422 4.422 0 0 1 .129-1.061c.012-.052.027-.103.04-.154.015-.046.027-.092.041-.136l.042-.122c.014-.036.026-.075.041-.11l.041-.105c.014-.028.027-.061.041-.093l.041-.088.042-.086.04-.08.042-.076.04-.072.042-.072c.014-.02.027-.043.04-.067.015-.02.027-.043.042-.063l.041-.063c.014-.018.027-.038.041-.059.014-.02.028-.037.041-.058a1.03 1.03 0 0 0 .042-.055.467.467 0 0 1 .041-.052c.013-.02.027-.036.041-.054.014-.019.027-.033.041-.05.014-.017.027-.035.04-.048l.043-.049a.706.706 0 0 0 .04-.047c.015-.014.029-.028.043-.045.013-.013.027-.03.04-.042l.042-.042a.522.522 0 0 1 .04-.043c.014-.016.027-.026.041-.042.014-.014.028-.024.041-.037a.855.855 0 0 0 .042-.04.478.478 0 0 0 .041-.037c.015-.01.028-.024.042-.034l.04-.037a.529.529 0 0 0 .042-.035c.014-.013.027-.021.04-.035A.582.582 0 0 0 1.65.93.555.555 0 0 0 1.69.898l.04-.031.041-.033.041-.027c.015-.013.028-.02.042-.03l.041-.03c.014-.007.027-.02.041-.027.014-.007.028-.018.041-.026.014-.008.027-.018.041-.027.014-.006.027-.015.04-.023L2.103.62c.014-.008.027-.019.04-.027.015-.006.028-.013.042-.02l.04-.025.042-.021a.656.656 0 0 0 .041-.022c.013-.01.027-.015.041-.023L2.39.461c.014-.008.028-.014.041-.02L2.471.42c.014-.007.027-.012.041-.02A.272.272 0 0 0 2.554.38c.014-.005.028-.013.041-.017l.04-.017.042-.018.042-.017.032-.015.04-.016.041-.013c.014-.009.027-.01.041-.017l.042-.013.041-.014.041-.014c.014-.006.028-.008.041-.013L3.08.184 3.12.172l.042-.01.04-.012.042-.01c.014-.002.028-.008.04-.009.016-.004.029-.007.043-.012l.04-.008c.014-.001.028-.005.042-.007.014-.006.028-.006.041-.008l.041-.009C3.505.084 3.52.08 3.533.08l.041-.008c.014 0 .027-.005.041-.005.013-.001.028-.005.04-.005.015-.004.028-.005.042-.008l.04-.003.042-.006c.014-.001.028-.004.04-.004l.043-.003.04-.006h.042c.014-.004.027-.004.041-.004l.041-.002a.462.462 0 0 1 .041-.002h.041c.014-.002.027-.005.041-.005h6.355zM34.002.013v21.638a4.44 4.44 0 0 1-.059.713c-.014.072-.025.147-.043.217a2.583 2.583 0 0 1-.041.173c-.012.05-.025.1-.04.148-.013.045-.026.091-.042.133-.012.04-.025.078-.04.118-.015.036-.026.07-.04.106-.016.036-.029.07-.042.102-.015.032-.026.063-.041.095l-.041.087-.041.084c-.014.026-.027.054-.041.078-.016.024-.027.051-.041.075-.016.023-.027.048-.041.07l-.04.07c-.015.021-.028.044-.042.065-.016.021-.027.041-.04.063-.017.022-.028.042-.042.062-.016.02-.027.04-.04.06-.017.02-.03.037-.044.058l-.04.057-.041.054-.041.053-.041.05-.041.048-.041.05a.259.259 0 0 0-.041.045c-.016.014-.028.027-.043.044l-.04.042-.042.043-.04.04a1.71 1.71 0 0 1-.042.04l-.04.04c-.017.013-.026.025-.041.037a.645.645 0 0 1-.041.037l-.041.036c-.015.012-.028.022-.041.035a.479.479 0 0 0-.041.033c-.014.012-.028.02-.043.033-.014.01-.026.021-.041.031l-.041.034c-.014.008-.026.02-.04.03a.395.395 0 0 0-.042.03c-.016.007-.028.017-.043.026l-.04.029c-.015.008-.027.018-.042.026l-.04.028c-.015.007-.026.017-.041.025-.014.007-.026.017-.041.025-.014.006-.026.017-.041.025l-.041.022c-.014.008-.028.017-.043.024l-.041.023c-.014.004-.026.013-.041.022a.292.292 0 0 0-.04.021c-.015.005-.027.014-.04.021a.374.374 0 0 0-.042.022c-.015.005-.027.013-.04.021a.556.556 0 0 0-.042.018l-.042.022-.041.02c-.015.006-.027.012-.041.02l-.041.019c-.015.006-.027.013-.041.017l-.041.02c-.015.005-.027.012-.041.016a.556.556 0 0 0-.041.018l-.04.014-.042.017c-.017.004-.029.01-.043.016a.328.328 0 0 0-.04.014l-.042.014-.04.012-.041.012c-.017.007-.028.009-.043.014l-.041.012c-.015.005-.026.01-.041.011l-.041.013-.041.01-.04.01c-.016.004-.027.008-.042.01l-.04.01-.044.01-.04.007a.72.72 0 0 1-.082.015l-.041.007-.041.006-.041.008c-.015 0-.028.002-.041.004-.017.002-.028.004-.043.004l-.041.006-.04.002c-.013.004-.027.004-.042.006l-.04.004-.042.002-.04.002c-.015.003-.029.003-.042.003a.299.299 0 0 1-.042.002h-.041l-.041.002h-6.329v-8.82h6.684c.015-.002.027-.002.04-.002.018 0 .03 0 .044-.002l.057-.006.04-.002.042-.002.04-.004h.041c.016 0 .027-.001.041-.003.016 0 .027-.002.041-.004l.043-.004.041-.008.041-.006.04-.006.042-.008.04-.006a.366.366 0 0 1 .042-.008c.016-.002.027-.008.04-.01l.044-.009.04-.01c.014-.005.027-.007.041-.01.016-.005.027-.007.041-.01a.742.742 0 0 1 .041-.014c.016-.002.027-.008.043-.012L31.19 17l.041-.006.04-.014.042-.015c.014-.004.027-.012.04-.016l.042-.016.04-.018.042-.018a.63.63 0 0 1 .04-.02l.043-.02c.014-.005.025-.013.041-.02.014-.005.025-.013.041-.02.014-.007.027-.016.041-.022.014-.006.025-.015.041-.023a.173.173 0 0 0 .039-.02l.043-.024c.014-.006.027-.016.04-.026.017-.005.028-.015.042-.024a.143.143 0 0 0 .04-.026c.017-.008.03-.018.044-.028.014-.01.027-.02.04-.032a.533.533 0 0 0 .041-.031c.014-.012.027-.02.041-.034a.583.583 0 0 0 .082-.07c.016-.013.027-.024.041-.038a.777.777 0 0 0 .041-.041c.016-.015.029-.027.043-.044.014-.015.027-.028.04-.046l.042-.048c.016-.019.027-.035.04-.054.017-.021.028-.038.042-.058.016-.02.028-.04.04-.06.017-.022.029-.046.042-.068.016-.023.027-.047.04-.073.016-.026.03-.054.043-.081.016-.033.026-.064.041-.096.016-.036.028-.073.041-.11.016-.048.028-.096.041-.144a2.133 2.133 0 0 0 .041-.767 2.018 2.018 0 0 0-.04-.21c-.014-.048-.026-.094-.042-.138-.013-.038-.025-.073-.04-.107-.016-.031-.028-.062-.042-.094-.015-.025-.027-.054-.043-.079-.013-.022-.024-.048-.04-.069-.013-.02-.025-.043-.041-.064a.47.47 0 0 0-.041-.058c-.014-.02-.025-.038-.041-.057l-.041-.05c-.014-.016-.025-.031-.041-.048l-.041-.045-.043-.042c-.014-.012-.027-.026-.04-.04l-.042-.036a.321.321 0 0 0-.04-.035c-.015-.014-.028-.022-.042-.036-.014-.009-.027-.02-.04-.03-.014-.01-.027-.022-.042-.03l-.04-.03c-.014-.007-.027-.018-.043-.028-.014-.007-.025-.017-.041-.025-.014-.008-.027-.019-.041-.025a.44.44 0 0 1-.041-.025c-.016-.007-.027-.014-.043-.022l-.039-.023c-.016-.007-.027-.015-.04-.021l-.042-.021c-.016-.008-.027-.015-.04-.02l-.042-.021-.042-.018-.041-.019c-.014-.006-.027-.01-.041-.017-.014-.007-.027-.011-.041-.017l-.041-.015c-.014-.004-.027-.01-.041-.016a.276.276 0 0 1-.041-.014c-.016-.004-.029-.01-.041-.013l-.04-.013-.042-.013c-.016-.006-.029-.008-.043-.013l-.04-.011c-.015-.004-.028-.008-.042-.01-.014-.004-.027-.008-.04-.01l-.041-.01c-.016-.005-.027-.007-.043-.01l-.041-.008-.041-.009-.041-.006a.244.244 0 0 0-.041-.008l-.04-.007-.042-.007-.04-.005-.044-.006-.04-.004-.042-.004-.04-.004-.041-.002-.04-.004v-.05l.039-.006.04-.007a.485.485 0 0 1 .041-.007l.041-.008.041-.01.043-.01.041-.01c.015-.004.026-.008.041-.01l.04-.012.042-.012.04-.013a.27.27 0 0 1 .042-.014c.015-.004.026-.01.04-.014l.044-.014.04-.017c.015-.004.026-.011.041-.016l.041-.018a.802.802 0 0 0 .041-.019c.017-.006.028-.012.043-.018l.041-.021.041-.021.041-.022c.014-.006.026-.013.04-.021.015-.007.027-.015.042-.024l.04-.023c.015-.01.029-.017.042-.027l.04-.026c.015-.01.029-.018.041-.03.016-.009.028-.019.043-.029l.041-.033c.014-.01.026-.022.041-.032l.04-.038c.015-.012.027-.024.041-.037.015-.015.027-.028.041-.04l.041-.044a.548.548 0 0 0 .04-.046c.018-.015.03-.031.044-.048.015-.017.027-.034.04-.051.016-.019.028-.037.042-.056a.506.506 0 0 0 .04-.061c.016-.023.027-.044.042-.067a.9.9 0 0 0 .04-.072c.015-.028.03-.056.041-.084.017-.032.03-.064.041-.096.017-.037.03-.075.043-.114a1.674 1.674 0 0 0 .082-.396c.006-.067.01-.134.01-.2a2.325 2.325 0 0 0-.05-.463c-.013-.05-.027-.1-.042-.148-.014-.039-.026-.076-.043-.114a.655.655 0 0 0-.04-.095.86.86 0 0 0-.042-.08.707.707 0 0 0-.04-.072c-.015-.022-.026-.043-.041-.064-.012-.02-.026-.039-.041-.06l-.041-.053c-.014-.017-.026-.034-.041-.05l-.043-.047-.041-.044c-.014-.014-.026-.027-.041-.04-.014-.013-.026-.027-.04-.039-.015-.013-.027-.026-.042-.036-.014-.013-.026-.025-.04-.035l-.04-.034a.6.6 0 0 1-.042-.03c-.017-.01-.029-.02-.043-.03a1.265 1.265 0 0 0-.04-.027l-.041-.027-.041-.025-.041-.025c-.015-.006-.027-.015-.041-.022l-.041-.021c-.015-.009-.029-.015-.041-.021-.015-.007-.027-.015-.041-.021a.46.46 0 0 1-.04-.02c-.018-.005-.03-.01-.044-.017-.013-.007-.026-.012-.04-.018l-.042-.017-.04-.016c-.016-.004-.028-.01-.041-.015l-.043-.014c-.015-.005-.026-.01-.041-.014l-.041-.013a.454.454 0 0 0-.041-.012l-.041-.013-.04-.01-.042-.011-.04-.01c-.016-.002-.029-.006-.044-.01l-.04-.008c-.016-.002-.027-.006-.042-.008l-.04-.008-.041-.007-.041-.007-.041-.005-.041-.005-.043-.006-.041-.004-.04-.005-.042-.005-.04-.003-.042-.003-.04-.003-.042-.002h-.016l-.025-.003-.04-.002-.043-.002-.082-.004-.04-.002-.042-.001-.04-.001-.04-.001h-6.106V4.342c0-.301.029-.596.088-.881.013-.061.025-.123.04-.183.016-.05.028-.102.042-.152.015-.045.027-.09.043-.134.013-.04.025-.082.04-.122.013-.037.026-.074.041-.111.013-.035.025-.07.041-.103.015-.032.025-.064.041-.096.013-.03.025-.06.041-.09.015-.028.025-.055.041-.084.015-.026.027-.052.042-.079l.042-.076c.015-.025.027-.049.04-.073.016-.023.028-.046.044-.07.013-.022.025-.045.04-.067.014-.021.026-.042.042-.064.015-.02.027-.042.04-.062.016-.02.028-.04.042-.06a2.44 2.44 0 0 0 .04-.058l.041-.055.041-.055.041-.052.041-.05.041-.05c.014-.016.027-.031.043-.046a.427.427 0 0 1 .04-.047l.042-.045.04-.043c.015-.015.026-.029.042-.043l.04-.04a1.295 1.295 0 0 1 .084-.08c.012-.013.025-.026.04-.039.015-.012.026-.024.04-.037.016-.012.03-.024.043-.036l.041-.037c.013-.013.027-.023.041-.034.014-.01.027-.024.04-.033l.042-.032.04-.033.042-.03.04-.03.042-.03.04-.03.041-.028.042-.027.043-.027.041-.027.041-.025.041-.025.041-.024c.015-.007.026-.016.04-.024.016-.007.027-.015.042-.022.015-.007.028-.015.04-.022l.044-.022.04-.021.042-.021.04-.02c.015-.008.026-.015.041-.021.015-.006.026-.013.041-.02.015-.005.026-.012.041-.018l.041-.018c.015-.006.026-.012.041-.017l.04-.018.044-.016.04-.016.042-.015c.014-.004.026-.01.04-.015a.423.423 0 0 1 .042-.015l.04-.014.043-.014a.569.569 0 0 1 .041-.012l.041-.013.041-.012.041-.012.043-.011.04-.012.042-.01a.426.426 0 0 1 .04-.01c.015-.002.027-.006.042-.01l.04-.008.042-.008c.013-.003.026-.007.04-.009l.04-.008.041-.006.041-.007.043-.006.041-.006.041-.005.04-.005.042-.004.043-.005.04-.004.042-.006.04-.002c.015 0 .03-.002.041-.003l.043-.002h.041l.041-.002.041-.002h6.269V.013zm-4.804 14.65c0 .094-.008.184-.029.267-.012.051-.022.097-.04.143a.814.814 0 0 1-.042.101c-.014.026-.024.052-.04.078-.015.02-.024.042-.042.064a1.474 1.474 0 0 1-.081.11 1.239 1.239 0 0 0-.041.045c-.016.014-.03.027-.043.041l-.041.036-.041.031-.04.029c-.015.008-.027.018-.042.026a.61.61 0 0 0-.04.024l-.042.02a.678.678 0 0 0-.043.022l-.04.018c-.015.008-.026.012-.041.018-.014.004-.026.011-.041.015l-.041.012c-.016.005-.026.009-.041.01l-.018.005a.243.243 0 0 1-.064.012l-.041.006-.04.004-.042.002-.04.004c-.017 0-.029.003-.042.003h-2.484v-2.288h2.484c.013.002.025.002.041.002.013.002.027.002.041.005.015 0 .027.002.041.004l.041.002a.556.556 0 0 0 .082.013.1.1 0 0 1 .023.004l.018.004.04.01c.016.004.028.01.042.012.015.007.027.01.04.017.016.004.027.01.041.017.015.006.027.013.041.02.017.005.027.013.043.02.015.003.025.012.041.02.015.006.027.014.041.023.015.006.027.019.041.027.015.009.027.019.04.03.016.01.028.02.042.03.015.015.027.024.04.038.018.012.03.026.044.04.015.014.027.03.04.046.018.016.028.034.042.05.014.018.027.037.04.058.018.021.027.043.041.065.017.025.027.054.041.08.016.032.03.065.041.097.02.048.03.094.041.143.02.082.03.172.03.266zm-.286-3.476c0 .084-.01.166-.025.243a.773.773 0 0 1-.041.142.666.666 0 0 1-.041.096.79.79 0 0 1-.041.075c-.014.022-.026.043-.04.063-.015.019-.027.037-.042.054-.014.017-.026.033-.04.047l-.042.042a1.458 1.458 0 0 1-.04.037c-.015.012-.027.023-.044.034a.318.318 0 0 1-.04.03c-.014.01-.026.019-.041.027-.014.008-.026.017-.041.024-.014.007-.026.015-.041.021-.014.007-.026.015-.041.021l-.041.017-.041.016c-.014.005-.026.01-.041.014l-.043.012a.418.418 0 0 1-.04.01l-.04.008-.012.002a.333.333 0 0 0-.03.004c-.013.002-.025.004-.04.004-.015.003-.028.005-.041.005l-.041.004-.041.002h-2.264v-.003h-.022v-2.106h2.286l.04.002.042.003c.013 0 .026.002.04.004.016 0 .028.003.041.004l.03.004.011.002a.234.234 0 0 1 .04.01c.015.001.027.006.041.01.015.002.027.007.043.01l.041.015.04.015c.016.005.028.012.042.018a.31.31 0 0 1 .04.021c.016.006.028.014.042.021.015.008.027.016.04.025.016.008.028.017.042.027a.36.36 0 0 1 .04.03c.017.01.03.022.043.034.015.012.027.025.041.038.015.013.027.026.041.041l.041.047.041.054c.015.02.027.042.041.063a.74.74 0 0 1 .04.075c.018.032.028.064.042.097a.74.74 0 0 1 .04.142c.02.076.026.157.026.243z"/><path fill="#fff" d="M22.268.018v21.627a4.622 4.622 0 0 1-.076.814c-.014.064-.025.13-.043.193a2.37 2.37 0 0 1-.041.16 1.637 1.637 0 0 1-.04.14 1.517 1.517 0 0 1-.042.125c-.014.038-.025.076-.04.114-.015.037-.026.07-.042.105l-.04.099c-.015.029-.027.06-.041.09l-.041.085c-.014.026-.027.057-.041.081-.014.027-.027.053-.043.078a.725.725 0 0 1-.041.074 1.242 1.242 0 0 1-.04.07c-.013.022-.026.045-.04.066a.563.563 0 0 0-.04.063c-.017.022-.028.042-.042.063-.016.02-.029.04-.043.062a1.454 1.454 0 0 0-.04.058l-.042.057-.04.055a6.337 6.337 0 0 1-.123.156l-.041.047c-.014.017-.027.032-.041.046-.014.017-.025.03-.041.046l-.041.044a4.199 4.199 0 0 0-.04.042l-.042.041-.04.042c-.017.014-.028.026-.044.04-.014.014-.025.025-.04.037-.015.015-.026.024-.042.038l-.04.038a.716.716 0 0 1-.041.033c-.014.015-.027.023-.041.036l-.041.033-.041.033c-.016.01-.027.02-.041.03-.016.01-.027.022-.043.032-.014.009-.025.02-.04.03-.015.009-.026.019-.042.029-.014.008-.027.02-.04.027-.017.01-.028.023-.042.03-.014.007-.027.017-.04.026-.017.006-.028.016-.044.027-.014.007-.025.017-.04.025-.014.007-.025.016-.041.026l-.041.023c-.014.005-.025.015-.041.024-.014.005-.025.014-.041.023l-.082.043-.041.02c-.014.007-.027.016-.041.022-.014.008-.027.016-.04.022l-.042.021a.63.63 0 0 1-.082.04.381.381 0 0 1-.04.02l-.041.021-.041.017-.041.019-.041.017-.041.017-.043.018-.041.014-.04.015-.042.018a.328.328 0 0 0-.04.014l-.042.012a.28.28 0 0 1-.04.014l-.042.012-.04.014c-.016.004-.028.006-.041.011l-.043.012-.041.01c-.014.005-.026.009-.041.01l-.041.01-.041.01c-.016.005-.027.009-.042.01a.39.39 0 0 0-.04.01l-.042.008-.04.008a.292.292 0 0 1-.042.008l-.04.006-.042.006-.041.006-.041.006-.041.004-.042.006-.041.004-.042.004-.041.004c-.014 0-.027 0-.04.002l-.042.002-.04.002-.042.002h-.04c-.015.003-.028.003-.041.003H11.75v-9.99c.028.025.058.051.088.075.013.012.027.02.04.033.015.01.028.021.041.031.015.01.027.023.041.032l.041.03c.013.008.027.019.041.03a.407.407 0 0 1 .041.028l.041.027c.015.006.028.018.042.026l.041.028a.258.258 0 0 1 .042.025c.014.007.027.017.04.026l.042.024c.014.004.027.015.04.023.015.007.028.015.042.023l.04.018.041.022.041.022c.014.005.027.013.041.021.014.006.027.014.041.022l.041.02.042.021.041.02.042.021.04.021.042.02.04.02.042.018.04.019.041.02.041.019.041.016.042.018.041.017c.014.004.027.01.041.018l.041.014c.014.006.027.012.04.016l.042.016.042.015.029.021.04.015c.015.005.029.009.041.015l.041.012.042.01.041.014.041.012.041.013.041.012.041.013.042.01.04.013.042.01.04.012.043.01.04.012.041.01.041.01.041.01.042.004.041.01.041.01.041.008.04.008.042.008.042.008.04.009.042.007.04.006.042.008.041.007.042.009.041.006.041.008.041.006.041.006.04.008.042.002.04.006.042.006.04.007.042.004.04.007.041.004.042.007.041.004.041.004.041.004.04.006.042.004.04.004.042.002.04.004.042.004.041.002.041.004.041.002.041.004.041.003.042.004.041.002.082.004.038-.006.04.002.042.002.04.002h.041l.042.002.041.003.041.002h.041l.041.002h.041l.042.002h.082l.04.002h.433l.04-.002h.165l.041-.002h.042l.041-.002h.041l.042-.002h.041l.042-.003.082-.004h.04l.042-.002h.04l.041-.002.041-.002.043-.002.041-.003.041-.004.041-.002.041-.004.04-.002.042-.004.04.002.042-.004.04-.004.042-.002.04-.002.04-.004.082-.008.043-.004.041-.004.04-.005.041-.004.042-.004.04-.007.042-.005.04-.004.042-.006.04-.004.042-.006.041-.006.041-.004.042-.006.082-.012.04-.006.042-.017.04-.007.042-.006.043-.006.04-.007.041-.009.041-.006.041-.006.041-.008.041-.003.041-.006.04-.01.042-.005.043-.008.04-.008.042-.008.04-.006.041-.008.041-.008.041-.006.041-.01.041-.007.041-.01.041-.008.04-.008.042-.006.04-.008.042-.008.04-.01.042-.008.042-.01.041-.008.041-.011.041-.008.041-.008.041-.01.055-.034.04-.01.042-.01.04-.009.042-.01.04-.01.042-.01.042-.01.041-.01.041-.01.041-.012v-1.83l-.04.022-.042.021-.04.021-.043.02-.041.021-.041.022-.041.02-.041.02-.041.02-.041.02-.04.021-.042.02-.043.02-.04.019-.042.018-.04.02-.041.017-.041.02-.043.019-.041.016-.041.018-.041.017-.041.017-.04.017-.042.016-.04.017-.042.016-.04.015-.042.015-.04.017-.041.014-.041.014-.041.015-.041.015-.041.013-.041.014-.041.014-.04.012-.044.013-.04.013-.042.013-.04.013-.041.012-.041.01-.041.012-.041.012-.041.012-.041.01-.043.011-.04.008-.042.01-.04.01-.042.008-.04.01-.042.009-.04.011-.041.008-.041.01-.041.006-.043.008-.041.008-.041.006-.04.006-.042.006-.04.008-.044.008-.04.006-.082.012-.041.007-.041.004-.041.004-.041.006-.041.004-.082.008-.04.005-.04.002-.026.002-.016.002-.04.002-.042.002-.082.004-.041.004-.041.002h-.041l-.041.002h-.248l-.041-.002h-.041c-.014-.002-.027-.002-.041-.002l-.041-.004-.041-.002-.041-.004-.041-.002-.04-.004c-.015 0-.028-.002-.042-.004l-.04-.005-.042-.004-.04-.004-.042-.008-.04-.006-.041-.007-.042-.006-.041-.008a.294.294 0 0 1-.041-.008c-.014-.002-.028-.004-.041-.008a.207.207 0 0 1-.042-.009.295.295 0 0 1-.041-.008c-.014-.004-.027-.006-.04-.011l-.042-.01c-.014-.002-.027-.009-.04-.01-.015-.005-.029-.009-.042-.011l-.042-.012-.04-.012a.567.567 0 0 1-.082-.028.76.76 0 0 0-.041-.013c-.014-.006-.027-.012-.041-.016-.014-.004-.027-.01-.041-.015-.014-.006-.027-.012-.041-.016-.014-.006-.028-.013-.04-.017-.016-.006-.029-.013-.043-.017a.388.388 0 0 1-.04-.02l-.042-.019-.04-.02a.25.25 0 0 1-.041-.022.388.388 0 0 1-.042-.02.153.153 0 0 1-.041-.021c-.014-.006-.028-.015-.041-.021a.224.224 0 0 1-.041-.023c-.014-.005-.027-.016-.041-.023-.014-.006-.027-.018-.041-.024-.014-.007-.027-.02-.041-.026a.2.2 0 0 1-.04-.025c-.015-.008-.028-.018-.042-.027a.218.218 0 0 1-.04-.029c-.016-.009-.029-.02-.043-.03-.014-.01-.028-.02-.04-.032-.015-.01-.029-.021-.041-.031-.014-.015-.028-.022-.041-.036l-.041-.036-.041-.037-.041-.04c-.014-.016-.028-.028-.041-.042l-.041-.046a5.105 5.105 0 0 1-.082-.094l-.04-.05-.042-.055-.042-.059c-.014-.021-.028-.04-.04-.06-.016-.02-.029-.044-.043-.064l-.04-.071-.041-.073a1.582 1.582 0 0 1-.041-.082l-.042-.09-.041-.099a1.954 1.954 0 0 1-.041-.11c-.014-.043-.028-.084-.041-.128a3.11 3.11 0 0 1-.082-.349 4.111 4.111 0 0 1 0-1.361c.012-.067.025-.132.041-.197.012-.052.027-.103.041-.153a4.794 4.794 0 0 1 .082-.24l.04-.097.043-.09.04-.082.042-.075.04-.07.042-.064.041-.062.042-.057.041-.054.041-.051.041-.049.04-.046.042-.044a1.51 1.51 0 0 1 .04-.041l.042-.04.04-.038.042-.037c.013-.012.027-.022.04-.035.013-.012.027-.022.041-.033l.041-.033.042-.03.041-.03c.014-.009.027-.02.041-.028l.041-.027.04-.026c.015-.008.028-.017.042-.026.014-.006.027-.015.04-.023a.61.61 0 0 1 .083-.045l.04-.021.043-.02c.013-.008.026-.015.04-.02l.041-.02.041-.018.041-.019.042-.016.041-.016a.335.335 0 0 1 .04-.015.855.855 0 0 1 .042-.017l.04-.014c.015-.004.028-.01.042-.013.014-.005.027-.008.04-.014l.042-.012.04-.012.042-.012.041-.01.041-.01.041-.01.041-.01.041-.01.042-.007c.013-.004.027-.005.04-.008l.042-.008.04-.006a.592.592 0 0 1 .043-.008l.04-.006.041-.007.041-.006.041-.004.041-.005.041-.004.041-.004.041-.003.04-.003.042-.003.04-.003.042-.002c.014 0 .027 0 .04-.002h.042l.041-.002H17.487l.04.002h.042l.04.002.042.002.082.004.041.002.041.003h.016l.025.002.041.003.04.004.041.003.041.004.06-.01.042.005.04.004.042.005.04.004.041.006.041.005.041.006.042.007.041.006.042.006.041.006.04.008.042.007.042.007.04.008.042.008.04.008.041.008.041.008.042.008.041.01.041.008.041.01.041.01.043.01.04.01.042.01.04.01.042.012.04.011.042.01.04.013.041.012.041.013.043.012.041.013.04.013.04.013.04.014.044.013.04.014.042.014.04.014.041.015.041.014.041.015.082.031.041.016.041.017.04.016.042.017.04.017.042.018.043.017.04.017.041.019.041.018.041.018.041.018.043.019.041.02.082.038.04.02.042.02.04.019.042.021.04.02.043.02.041.022.041.02.041.022V9.129l-.04-.01-.042-.01-.04-.01-.044-.01-.04-.01-.041-.01-.041-.008-.041-.01-.041-.009-.082-.018-.04-.009-.044-.008-.04-.01-.042-.007-.04-.009-.041-.009-.041-.008-.043-.008-.041-.008-.041-.008-.041-.008-.041-.01-.041-.008-.04-.007-.042-.008-.04-.007-.042-.007-.04-.009-.041-.006-.041-.008-.041-.008-.041-.007-.043-.007-.04-.007-.041-.007-.04-.007-.04-.007-.044-.006-.04-.006-.042-.007-.04-.006-.041-.006-.041-.005-.041-.007-.041-.006-.041-.006-.041-.006-.043-.006-.04-.006-.042-.005-.04-.005-.042-.005-.042-.005-.04-.005-.042-.005-.04-.006-.041-.004-.041-.004-.042-.004-.041-.006-.041-.004-.04-.004-.043-.004-.04-.004-.043-.003-.04-.004-.042-.003-.04-.004-.041-.004-.041-.003-.041-.003-.041-.004-.041-.002-.041-.004-.04-.002-.042-.002-.04-.002-.042-.002-.04-.002-.043-.002h-.041l-.041-.003-.041-.002h-.041l-.041-.002h-.041l-.04-.002h-.043l-.04-.002h-.124l-.043-.002h-.081l-.041-.002h-.45l-.042.001h-.082l-.041.002-.042.001h-.041l-.04.001-.042.001-.04.001-.042.001-.042.002-.04.001-.041.002-.082.004-.041.002-.041.002-.041.002-.041.004-.042.002-.04.002-.042.004-.04.002-.042.003-.042.003-.04.003-.041.004-.041.004-.041.004-.041.003-.041.005-.041.004-.04.005-.042.004-.042.006-.04.004-.042.006-.04.006-.041.005-.041.005-.041.006-.041.005-.041.006-.041.007-.04.005-.042.007-.04.008-.043.007-.04.007-.043.007-.04.007-.041.008-.041.008-.042.009-.041.008-.041.008-.041.009-.04.01-.042.008-.042.01-.04.009-.042.01-.04.01-.041.01-.042.01-.041.01-.05.012-.041.011-.042.01-.041.013-.04.012-.042.013-.04.012-.042.012-.042.013-.04.014-.041.013-.041.014-.041.014-.042.016-.041.014-.041.015-.041.015-.04.016-.042.017-.042.016-.04.016-.042.017-.04.018-.041.017-.041.019-.041.018-.082.039-.042.019-.04.021-.043.022-.04.02-.042.022c-.014.008-.027.016-.04.022l-.083.046c-.013.006-.026.015-.04.023-.014.007-.027.016-.041.024l-.041.025a.753.753 0 0 0-.041.025.493.493 0 0 0-.041.026c-.015.008-.028.017-.042.026l-.04.028c-.016.008-.029.018-.043.027l-.04.028a1.934 1.934 0 0 1-.083.06.926.926 0 0 0-.04.03c-.015.01-.027.021-.041.032l-.041.033-.041.033-.088.075V4.347a4.398 4.398 0 0 1 .17-1.214c.013-.045.025-.09.04-.134.013-.04.026-.08.041-.121l.041-.111c.013-.036.027-.07.041-.103l.041-.095.042-.09.041-.084.042-.08.04-.077c.015-.024.028-.049.042-.073l.04-.07a2.1 2.1 0 0 1 .042-.068c.014-.02.027-.042.04-.064l.041-.063.041-.06.041-.057.041-.056.041-.055.042-.052.041-.05.042-.05c.014-.015.027-.03.04-.047l.042-.046.04-.044.042-.044.04-.043a.8.8 0 0 1 .041-.042l.041-.042.041-.038.042-.039.041-.037c.014-.014.027-.025.041-.037l.041-.036.04-.034c.015-.012.028-.024.042-.034l.042-.036.04-.03.042-.032c.014-.01.028-.02.04-.031.014-.008.028-.02.041-.03l.042-.028c.014-.009.027-.02.041-.028.013-.008.027-.019.041-.027l.041-.026c.014-.01.027-.019.041-.027a.47.47 0 0 0 .041-.026l.042-.024.04-.025c.015-.006.028-.014.042-.021a.643.643 0 0 0 .04-.024l.043-.021.04-.021.041-.02.041-.021.041-.02a.33.33 0 0 1 .042-.02l.041-.02.041-.018.04-.019c.015-.006.028-.01.042-.017l.04-.018c.015-.004.028-.01.043-.016l.04-.016.042-.015.04-.015c.015-.007.028-.01.042-.016l.041-.014.042-.014c.014-.004.028-.01.041-.013a.803.803 0 0 1 .041-.013l.041-.012.041-.011.04-.012c.015-.004.028-.008.042-.01a.497.497 0 0 1 .04-.01c.015-.004.028-.008.042-.01l.04-.01.041-.01a.49.49 0 0 1 .041-.007l.041-.008.042-.009.041-.006.041-.009a.715.715 0 0 1 .041-.007L15.4.06l.042-.006.04-.005.042-.004a.426.426 0 0 1 .04-.005l.042-.003.041-.004c.014 0 .027 0 .041-.002l.041-.002c.014 0 .027-.003.041-.003a.482.482 0 0 1 .041-.002h.042c.014-.002.027-.002.041-.005H22.268zm-11.765 0V21.64a4.638 4.638 0 0 1-.076.815 4.167 4.167 0 0 1-.041.194c-.012.054-.026.105-.041.16a5.82 5.82 0 0 1-.082.265l-.04.112a3.066 3.066 0 0 1-.084.204l-.04.09-.042.085a1.614 1.614 0 0 1-.04.081l-.041.078-.041.075a1.389 1.389 0 0 1-.041.068c-.014.02-.027.044-.041.066l-.042.064-.041.063-.041.062-.04.06c-.015.018-.028.038-.042.056a2.197 2.197 0 0 0-.04.055l-.042.053c-.014.018-.027.033-.04.052l-.042.05-.04.049-.041.047a.97.97 0 0 0-.042.045l-.041.044c-.014.016-.028.025-.042.043a1.003 1.003 0 0 0-.041.041l-.041.04-.041.04-.04.04-.042.036-.04.038c-.015.013-.028.022-.042.035l-.04.034-.041.034a3.005 3.005 0 0 1-.247.182l-.04.029-.043.026a.245.245 0 0 0-.04.028.152.152 0 0 0-.042.023c-.013.007-.027.018-.04.026-.015.007-.029.016-.042.024l-.041.024a.2.2 0 0 0-.041.024c-.014.004-.027.012-.041.02a.643.643 0 0 0-.041.023l-.041.022c-.014.005-.027.013-.041.021-.014.009-.027.015-.042.022l-.041.021a.25.25 0 0 0-.04.022c-.015.006-.029.012-.042.019a.423.423 0 0 1-.042.02l-.04.018-.042.019-.04.02c-.014.005-.027.012-.041.018a.403.403 0 0 1-.042.015l-.041.017-.042.015-.041.016-.041.017a.327.327 0 0 0-.04.014l-.042.012-.04.015-.043.012-.04.013-.042.01c-.014.005-.027.01-.041.013-.014.004-.028.008-.041.01-.014.004-.027.008-.041.01l-.041.012-.042.01-.041.01a.294.294 0 0 0-.041.007c-.014.002-.028.007-.04.01l-.043.006-.04.009-.042.006c-.014.004-.028.006-.04.008l-.041.004-.041.006-.042.004-.041.006-.041.004-.041.005-.041.004c-.014 0-.027 0-.041.002l-.04.002-.042.002-.04.002h-.042a.29.29 0 0 1-.042.002h-6.32v-9.119l.088.021.082.02.041.01.042.012.041.011.041.01.041.01.04.008.043.011.04.01.042.007.04.008.041.01.041.01.042.008.041.01.041.008.041.008.042.008.041.008.04.008.042.006.04.01.043.007.04.007.043.008.04.007.041.006.041.009.041.006.041.008.042.006.04.006.043.006.04.007.042.006.04.006.042.008.041.006.041.004.041.008.041.006.042.004.041.006.041.006.041.006.04.004.042.006.042.006.04.006.042.004.081.008.042.006.041.004.082.008.041.004.041.006.042.005.04.004.042.004.04.004.043.004.035.006.041.004.041.004.041.002.042.004.041.002.041.004.041.001.04.003.042.002.042.004.04.002.042.002.04.005.042.002.041.002.042.003.041.002.036.005.042.002.04.002.042.002.04.002h.042l.04.003h.042l.04.002h.042l.041.001h.124l.041.002h.572l.04-.002h.042l.042-.002h.04l.041-.002h.041l.041-.002.041-.003.042-.002.041-.001h.041l.082-.004.04-.002.037-.006.04-.002.043-.005.04-.002.041-.002.042-.002.041-.004.042-.004.041-.002.041-.005.082-.008.04-.006.042-.004.04-.004.042-.006.04-.005.042-.003.041-.007.041-.002.041-.007.041-.007.042.022.041-.008.04-.006c.015-.002.029-.004.042-.008l.04-.006a.306.306 0 0 1 .043-.008l.04-.006.041-.008.041-.01.041-.007c.014-.005.027-.007.041-.01l.041-.009.041-.006.041-.01.04-.008c.016-.005.029-.009.043-.011.014-.004.027-.008.04-.01l.042-.012.04-.012c.015-.002.028-.007.041-.011l.041-.011.042-.013.041-.01.041-.014.041-.014.042-.013.041-.012c.013-.004.027-.01.04-.013l.042-.014.04-.012c.016-.006.029-.01.043-.017l.04-.014.043-.016c.012-.005.027-.01.04-.017.014-.004.027-.01.041-.016.014-.007.027-.012.041-.017l.041-.02.042-.019c.014-.006.028-.013.042-.017l.041-.021.042-.02.04-.021a.323.323 0 0 0 .042-.021l.04-.019.042-.021.042-.021c.013-.006.026-.014.04-.022l.041-.02a.494.494 0 0 0 .041-.024c.015-.006.028-.015.042-.024.014-.005.027-.014.041-.024.014-.006.027-.016.041-.024a.2.2 0 0 0 .041-.025c.014-.007.027-.018.04-.028a.206.206 0 0 0 .042-.026c.015-.007.028-.018.042-.029a.324.324 0 0 0 .04-.03c.015-.008.029-.017.042-.03.014-.01.027-.018.04-.031.016-.011.028-.02.041-.033l.042-.033.041-.036.041-.039c.014-.013.028-.024.041-.038a.777.777 0 0 0 .041-.042c.014-.014.028-.027.041-.042a.594.594 0 0 0 .042-.043.84.84 0 0 0 .082-.096c.014-.016.028-.032.04-.05l.042-.052c.014-.02.027-.037.04-.058l.041-.062.041-.062.041-.067c.014-.021.027-.046.041-.07.014-.022.028-.051.041-.075.015-.027.029-.058.042-.084a2.997 2.997 0 0 0 .165-.432 3.157 3.157 0 0 0 .123-.647c.014-.142.02-.285.02-.431V8.864H5.975v5.02a2.62 2.62 0 0 1-.092.682 1.732 1.732 0 0 1-.041.126c-.013.038-.026.071-.041.125-.013.029-.027.064-.041.091-.013.025-.027.056-.041.081-.013.024-.027.05-.04.071a2.27 2.27 0 0 1-.083.126c-.014.021-.027.037-.04.058-.015.02-.029.034-.043.053l-.04.048a1.496 1.496 0 0 0-.042.044l-.041.044-.041.04-.042.037-.041.034-.041.032-.041.03-.04.03c-.015.008-.028.018-.042.028-.014.006-.027.017-.04.025a.61.61 0 0 0-.042.023c-.015.008-.028.016-.042.022l-.04.023-.041.022-.041.02-.041.02a.626.626 0 0 1-.041.02l-.042.019a.848.848 0 0 1-.082.033.327.327 0 0 0-.04.014l-.042.014-.042.014-.04.012c-.015.004-.028.006-.042.012l-.04.011a.518.518 0 0 0-.041.01l-.041.008-.042.008c-.014.002-.027.006-.041.01l-.041.007-.041.006a.144.144 0 0 1-.041.006l-.04.006-.042.004-.04.004c-.015.002-.029.002-.042.002l-.042.004-.04.002-.042.002-.041.001-.041.001H3.542l-.042-.002h-.04l-.042-.003-.042-.003-.04-.002h-.042l-.041-.004-.041-.002-.041-.004-.042-.002-.041-.004-.04-.004-.042-.005-.04-.005-.042-.004-.042-.006-.04-.007-.041-.006-.041-.004-.041-.006-.042-.007-.041-.007-.041-.008-.041-.007-.042-.008-.04-.006-.042-.01-.04-.008-.042-.01-.04-.008-.042-.008-.082-.019-.041-.01-.041-.01-.042-.011-.041-.01-.04-.014-.042-.01-.04-.011-.042-.01-.042-.011-.04-.013-.041-.013-.041-.011-.042-.014-.041-.012-.041-.013-.041-.012-.04-.014-.043-.015-.04-.016-.043-.012-.04-.014-.042-.016-.04-.015-.041-.015-.041-.017-.042-.014-.041-.016-.042-.017-.041-.015-.041-.018-.04-.016-.042-.017-.042-.017-.04-.018-.042-.018-.04-.018-.042-.018-.041-.017-.041-.02-.041-.019-.041-.018-.041-.02-.042-.017-.04-.02-.042-.019-.04-.02-.042-.02-.042-.02-.04-.021-.041-.021-.041-.02-.088-.044V4.35a4.422 4.422 0 0 1 .129-1.061c.012-.052.027-.103.04-.154.015-.046.027-.092.041-.136l.042-.122c.014-.036.026-.075.041-.11l.041-.105c.014-.028.027-.061.041-.093l.041-.088.042-.086.04-.08.042-.076.04-.072.042-.072c.014-.02.027-.043.04-.067.015-.02.027-.043.042-.063l.041-.063c.014-.018.027-.038.041-.059.014-.02.028-.037.041-.058a1.03 1.03 0 0 0 .042-.055.467.467 0 0 1 .041-.052c.013-.02.027-.036.041-.054.014-.019.027-.033.041-.05.014-.017.027-.035.04-.048l.043-.049a.706.706 0 0 0 .04-.047c.015-.014.029-.028.043-.045.013-.013.027-.03.04-.042l.042-.042a.522.522 0 0 1 .04-.043c.014-.016.027-.026.041-.042.014-.014.028-.024.041-.037a.855.855 0 0 0 .042-.04.478.478 0 0 0 .041-.037c.015-.01.028-.024.042-.034l.04-.037a.529.529 0 0 0 .042-.035c.014-.013.027-.021.04-.035A.582.582 0 0 0 1.65.93.555.555 0 0 0 1.69.898l.04-.031.041-.033.041-.027c.015-.013.028-.02.042-.03l.041-.03c.014-.007.027-.02.041-.027.014-.007.028-.018.041-.026.014-.008.027-.018.041-.027.014-.006.027-.015.04-.023L2.103.62c.014-.008.027-.019.04-.027.015-.006.028-.013.042-.02l.04-.025.042-.021a.656.656 0 0 0 .041-.022c.013-.01.027-.015.041-.023L2.39.461c.014-.008.028-.014.041-.02L2.471.42c.014-.007.027-.012.041-.02A.272.272 0 0 0 2.554.38c.014-.005.028-.013.041-.017l.04-.017.042-.018.042-.017.032-.015.04-.016.041-.013c.014-.009.027-.01.041-.017l.042-.013.041-.014.041-.014c.014-.006.028-.008.041-.013L3.08.184 3.12.172l.042-.01.04-.012.042-.01c.014-.002.028-.008.04-.009.016-.004.029-.007.043-.012l.04-.008c.014-.001.028-.005.042-.007.014-.006.028-.006.041-.008l.041-.009C3.505.084 3.52.08 3.533.08l.041-.008c.014 0 .027-.005.041-.005.013-.001.028-.005.04-.005.015-.004.028-.005.042-.008l.04-.003.042-.006c.014-.001.028-.004.04-.004l.043-.003.04-.006h.042c.014-.004.027-.004.041-.004l.041-.002a.462.462 0 0 1 .041-.002h.041c.014-.002.027-.005.041-.005h6.355zM34.002.013v21.638a4.44 4.44 0 0 1-.059.713c-.014.072-.025.147-.043.217a2.583 2.583 0 0 1-.041.173c-.012.05-.025.1-.04.148-.013.045-.026.091-.042.133-.012.04-.025.078-.04.118-.015.036-.026.07-.04.106-.016.036-.029.07-.042.102-.015.032-.026.063-.041.095l-.041.087-.041.084c-.014.026-.027.054-.041.078-.016.024-.027.051-.041.075-.016.023-.027.048-.041.07l-.04.07c-.015.021-.028.044-.042.065-.016.021-.027.041-.04.063-.017.022-.028.042-.042.062-.016.02-.027.04-.04.06-.017.02-.03.037-.044.058l-.04.057-.041.054-.041.053-.041.05-.041.048-.041.05a.259.259 0 0 0-.041.045c-.016.014-.028.027-.043.044l-.04.042-.042.043-.04.04a1.71 1.71 0 0 1-.042.04l-.04.04c-.017.013-.026.025-.041.037a.645.645 0 0 1-.041.037l-.041.036c-.015.012-.028.022-.041.035a.479.479 0 0 0-.041.033c-.014.012-.028.02-.043.033-.014.01-.026.021-.041.031l-.041.034c-.014.008-.026.02-.04.03a.395.395 0 0 0-.042.03c-.016.007-.028.017-.043.026l-.04.029c-.015.008-.027.018-.042.026l-.04.028c-.015.007-.026.017-.041.025-.014.007-.026.017-.041.025-.014.006-.026.017-.041.025l-.041.022c-.014.008-.028.017-.043.024l-.041.023c-.014.004-.026.013-.041.022a.292.292 0 0 0-.04.021c-.015.005-.027.014-.04.021a.374.374 0 0 0-.042.022c-.015.005-.027.013-.04.021a.556.556 0 0 0-.042.018l-.042.022-.041.02c-.015.006-.027.012-.041.02l-.041.019c-.015.006-.027.013-.041.017l-.041.02c-.015.005-.027.012-.041.016a.556.556 0 0 0-.041.018l-.04.014-.042.017c-.017.004-.029.01-.043.016a.328.328 0 0 0-.04.014l-.042.014-.04.012-.041.012c-.017.007-.028.009-.043.014l-.041.012c-.015.005-.026.01-.041.011l-.041.013-.041.01-.04.01c-.016.004-.027.008-.042.01l-.04.01-.044.01-.04.007a.72.72 0 0 1-.082.015l-.041.007-.041.006-.041.008c-.015 0-.028.002-.041.004-.017.002-.028.004-.043.004l-.041.006-.04.002c-.013.004-.027.004-.042.006l-.04.004-.042.002-.04.002c-.015.003-.029.003-.042.003a.299.299 0 0 1-.042.002h-.041l-.041.002h-6.329v-8.82h6.684c.015-.002.027-.002.04-.002.018 0 .03 0 .044-.002l.057-.006.04-.002.042-.002.04-.004h.041c.016 0 .027-.001.041-.003.016 0 .027-.002.041-.004l.043-.004.041-.008.041-.006.04-.006.042-.008.04-.006a.366.366 0 0 1 .042-.008c.016-.002.027-.008.04-.01l.044-.009.04-.01c.014-.005.027-.007.041-.01.016-.005.027-.007.041-.01a.742.742 0 0 1 .041-.014c.016-.002.027-.008.043-.012L31.19 17l.041-.006.04-.014.042-.015c.014-.004.027-.012.04-.016l.042-.016.04-.018.042-.018a.63.63 0 0 1 .04-.02l.043-.02c.014-.005.025-.013.041-.02.014-.005.025-.013.041-.02.014-.007.027-.016.041-.022.014-.006.025-.015.041-.023a.173.173 0 0 0 .039-.02l.043-.024c.014-.006.027-.016.04-.026.017-.005.028-.015.042-.024a.143.143 0 0 0 .04-.026c.017-.008.03-.018.044-.028.014-.01.027-.02.04-.032a.533.533 0 0 0 .041-.031c.014-.012.027-.02.041-.034a.583.583 0 0 0 .082-.07c.016-.013.027-.024.041-.038a.777.777 0 0 0 .041-.041c.016-.015.029-.027.043-.044.014-.015.027-.028.04-.046l.042-.048c.016-.019.027-.035.04-.054.017-.021.028-.038.042-.058.016-.02.028-.04.04-.06.017-.022.029-.046.042-.068.016-.023.027-.047.04-.073.016-.026.03-.054.043-.081.016-.033.026-.064.041-.096.016-.036.028-.073.041-.11.016-.048.028-.096.041-.144a2.133 2.133 0 0 0 .041-.767 2.018 2.018 0 0 0-.04-.21c-.014-.048-.026-.094-.042-.138-.013-.038-.025-.073-.04-.107-.016-.031-.028-.062-.042-.094-.015-.025-.027-.054-.043-.079-.013-.022-.024-.048-.04-.069-.013-.02-.025-.043-.041-.064a.47.47 0 0 0-.041-.058c-.014-.02-.025-.038-.041-.057l-.041-.05c-.014-.016-.025-.031-.041-.048l-.041-.045-.043-.042c-.014-.012-.027-.026-.04-.04l-.042-.036a.321.321 0 0 0-.04-.035c-.015-.014-.028-.022-.042-.036-.014-.009-.027-.02-.04-.03-.014-.01-.027-.022-.042-.03l-.04-.03c-.014-.007-.027-.018-.043-.028-.014-.007-.025-.017-.041-.025-.014-.008-.027-.019-.041-.025a.44.44 0 0 1-.041-.025c-.016-.007-.027-.014-.043-.022l-.039-.023c-.016-.007-.027-.015-.04-.021l-.042-.021c-.016-.008-.027-.015-.04-.02l-.042-.021-.042-.018-.041-.019c-.014-.006-.027-.01-.041-.017-.014-.007-.027-.011-.041-.017l-.041-.015c-.014-.004-.027-.01-.041-.016a.276.276 0 0 1-.041-.014c-.016-.004-.029-.01-.041-.013l-.04-.013-.042-.013c-.016-.006-.029-.008-.043-.013l-.04-.011c-.015-.004-.028-.008-.042-.01-.014-.004-.027-.008-.04-.01l-.041-.01c-.016-.005-.027-.007-.043-.01l-.041-.008-.041-.009-.041-.006a.244.244 0 0 0-.041-.008l-.04-.007-.042-.007-.04-.005-.044-.006-.04-.004-.042-.004-.04-.004-.041-.002-.04-.004v-.05l.039-.006.04-.007a.485.485 0 0 1 .041-.007l.041-.008.041-.01.043-.01.041-.01c.015-.004.026-.008.041-.01l.04-.012.042-.012.04-.013a.27.27 0 0 1 .042-.014c.015-.004.026-.01.04-.014l.044-.014.04-.017c.015-.004.026-.011.041-.016l.041-.018a.802.802 0 0 0 .041-.019c.017-.006.028-.012.043-.018l.041-.021.041-.021.041-.022c.014-.006.026-.013.04-.021.015-.007.027-.015.042-.024l.04-.023c.015-.01.029-.017.042-.027l.04-.026c.015-.01.029-.018.041-.03.016-.009.028-.019.043-.029l.041-.033c.014-.01.026-.022.041-.032l.04-.038c.015-.012.027-.024.041-.037.015-.015.027-.028.041-.04l.041-.044a.548.548 0 0 0 .04-.046c.018-.015.03-.031.044-.048.015-.017.027-.034.04-.051.016-.019.028-.037.042-.056a.506.506 0 0 0 .04-.061c.016-.023.027-.044.042-.067a.9.9 0 0 0 .04-.072c.015-.028.03-.056.041-.084.017-.032.03-.064.041-.096.017-.037.03-.075.043-.114a1.674 1.674 0 0 0 .082-.396c.006-.067.01-.134.01-.2a2.325 2.325 0 0 0-.05-.463c-.013-.05-.027-.1-.042-.148-.014-.039-.026-.076-.043-.114a.655.655 0 0 0-.04-.095.86.86 0 0 0-.042-.08.707.707 0 0 0-.04-.072c-.015-.022-.026-.043-.041-.064-.012-.02-.026-.039-.041-.06l-.041-.053c-.014-.017-.026-.034-.041-.05l-.043-.047-.041-.044c-.014-.014-.026-.027-.041-.04-.014-.013-.026-.027-.04-.039-.015-.013-.027-.026-.042-.036-.014-.013-.026-.025-.04-.035l-.04-.034a.6.6 0 0 1-.042-.03c-.017-.01-.029-.02-.043-.03a1.265 1.265 0 0 0-.04-.027l-.041-.027-.041-.025-.041-.025c-.015-.006-.027-.015-.041-.022l-.041-.021c-.015-.009-.029-.015-.041-.021-.015-.007-.027-.015-.041-.021a.46.46 0 0 1-.04-.02c-.018-.005-.03-.01-.044-.017-.013-.007-.026-.012-.04-.018l-.042-.017-.04-.016c-.016-.004-.028-.01-.041-.015l-.043-.014c-.015-.005-.026-.01-.041-.014l-.041-.013a.454.454 0 0 0-.041-.012l-.041-.013-.04-.01-.042-.011-.04-.01c-.016-.002-.029-.006-.044-.01l-.04-.008c-.016-.002-.027-.006-.042-.008l-.04-.008-.041-.007-.041-.007-.041-.005-.041-.005-.043-.006-.041-.004-.04-.005-.042-.005-.04-.003-.042-.003-.04-.003-.042-.002h-.016l-.025-.003-.04-.002-.043-.002-.082-.004-.04-.002-.042-.001-.04-.001-.04-.001h-6.106V4.342c0-.301.029-.596.088-.881.013-.061.025-.123.04-.183.016-.05.028-.102.042-.152.015-.045.027-.09.043-.134.013-.04.025-.082.04-.122.013-.037.026-.074.041-.111.013-.035.025-.07.041-.103.015-.032.025-.064.041-.096.013-.03.025-.06.041-.09.015-.028.025-.055.041-.084.015-.026.027-.052.042-.079l.042-.076c.015-.025.027-.049.04-.073.016-.023.028-.046.044-.07.013-.022.025-.045.04-.067.014-.021.026-.042.042-.064.015-.02.027-.042.04-.062.016-.02.028-.04.042-.06a2.44 2.44 0 0 0 .04-.058l.041-.055.041-.055.041-.052.041-.05.041-.05c.014-.016.027-.031.043-.046a.427.427 0 0 1 .04-.047l.042-.045.04-.043c.015-.015.026-.029.042-.043l.04-.04a1.295 1.295 0 0 1 .084-.08c.012-.013.025-.026.04-.039.015-.012.026-.024.04-.037.016-.012.03-.024.043-.036l.041-.037c.013-.013.027-.023.041-.034.014-.01.027-.024.04-.033l.042-.032.04-.033.042-.03.04-.03.042-.03.04-.03.041-.028.042-.027.043-.027.041-.027.041-.025.041-.025.041-.024c.015-.007.026-.016.04-.024.016-.007.027-.015.042-.022.015-.007.028-.015.04-.022l.044-.022.04-.021.042-.021.04-.02c.015-.008.026-.015.041-.021.015-.006.026-.013.041-.02.015-.005.026-.012.041-.018l.041-.018c.015-.006.026-.012.041-.017l.04-.018.044-.016.04-.016.042-.015c.014-.004.026-.01.04-.015a.423.423 0 0 1 .042-.015l.04-.014.043-.014a.569.569 0 0 1 .041-.012l.041-.013.041-.012.041-.012.043-.011.04-.012.042-.01a.426.426 0 0 1 .04-.01c.015-.002.027-.006.042-.01l.04-.008.042-.008c.013-.003.026-.007.04-.009l.04-.008.041-.006.041-.007.043-.006.041-.006.041-.005.04-.005.042-.004.043-.005.04-.004.042-.006.04-.002c.015 0 .03-.002.041-.003l.043-.002h.041l.041-.002.041-.002h6.269V.013zm-4.804 14.65c0 .094-.008.184-.029.267-.012.051-.022.097-.04.143a.814.814 0 0 1-.042.101c-.014.026-.024.052-.04.078-.015.02-.024.042-.042.064a1.474 1.474 0 0 1-.081.11 1.239 1.239 0 0 0-.041.045c-.016.014-.03.027-.043.041l-.041.036-.041.031-.04.029c-.015.008-.027.018-.042.026a.61.61 0 0 0-.04.024l-.042.02a.678.678 0 0 0-.043.022l-.04.018c-.015.008-.026.012-.041.018-.014.004-.026.011-.041.015l-.041.012c-.016.005-.026.009-.041.01l-.018.005a.243.243 0 0 1-.064.012l-.041.006-.04.004-.042.002-.04.004c-.017 0-.029.003-.042.003h-2.484v-2.288h2.484c.013.002.025.002.041.002.013.002.027.002.041.005.015 0 .027.002.041.004l.041.002a.556.556 0 0 0 .082.013.1.1 0 0 1 .023.004l.018.004.04.01c.016.004.028.01.042.012.015.007.027.01.04.017.016.004.027.01.041.017.015.006.027.013.041.02.017.005.027.013.043.02.015.003.025.012.041.02.015.006.027.014.041.023.015.006.027.019.041.027.015.009.027.019.04.03.016.01.028.02.042.03.015.015.027.024.04.038.018.012.03.026.044.04.015.014.027.03.04.046.018.016.028.034.042.05.014.018.027.037.04.058.018.021.027.043.041.065.017.025.027.054.041.08.016.032.03.065.041.097.02.048.03.094.041.143.02.082.03.172.03.266zm-.286-3.476c0 .084-.01.166-.025.243a.773.773 0 0 1-.041.142.666.666 0 0 1-.041.096.79.79 0 0 1-.041.075c-.014.022-.026.043-.04.063-.015.019-.027.037-.042.054-.014.017-.026.033-.04.047l-.042.042a1.458 1.458 0 0 1-.04.037c-.015.012-.027.023-.044.034a.318.318 0 0 1-.04.03c-.014.01-.026.019-.041.027-.014.008-.026.017-.041.024-.014.007-.026.015-.041.021-.014.007-.026.015-.041.021l-.041.017-.041.016c-.014.005-.026.01-.041.014l-.043.012a.418.418 0 0 1-.04.01l-.04.008-.012.002a.333.333 0 0 0-.03.004c-.013.002-.025.004-.04.004-.015.003-.028.005-.041.005l-.041.004-.041.002h-2.264v-.003h-.022v-2.106h2.286l.04.002.042.003c.013 0 .026.002.04.004.016 0 .028.003.041.004l.03.004.011.002a.234.234 0 0 1 .04.01c.015.001.027.006.041.01.015.002.027.007.043.01l.041.015.04.015c.016.005.028.012.042.018a.31.31 0 0 1 .04.021c.016.006.028.014.042.021.015.008.027.016.04.025.016.008.028.017.042.027a.36.36 0 0 1 .04.03c.017.01.03.022.043.034.015.012.027.025.041.038.015.013.027.026.041.041l.041.047.041.054c.015.02.027.042.041.063a.74.74 0 0 1 .04.075c.018.032.028.064.042.097a.74.74 0 0 1 .04.142c.02.076.026.157.026.243z"/></g></g></svg>