<svg xmlns="http://www.w3.org/2000/svg" width="48" height="29" viewBox="0 0 48 29"><g><g><path d="M47.026 22.546a.475.475 0 0 1-.233.407.47.47 0 0 1-.46 0 .471.471 0 0 1-.173-.64.435.435 0 0 1 .174-.173.463.463 0 0 1 .228-.062c.079 0 .154.021.227.062a.462.462 0 0 1 .237.406zm-.366.004c.041-.018.06-.059.06-.102 0-.039-.019-.078-.04-.098a.218.218 0 0 0-.1-.022h-.164v.392h.082v-.154h.06l.062.154h.1zm-.04-.103c0 .018 0 .037-.02.046-.02.008-.04.008-.04.008h-.062v-.1h.04c.021 0 .062 0 .062.007.02.008.02.024.02.04zm1.385-7.954v.007c.002 8.005-6.428 14.497-14.365 14.499a14.242 14.242 0 0 1-9.646-3.75l.037-.03-.001-.002h.003a14.47 14.47 0 0 0 1.46-1.553h-2.969c.455.562.937 1.1 1.47 1.584a14.242 14.242 0 0 1-9.634 3.746C6.428 28.994-.01 22.5-.01 14.499-.01 6.529 6.378.055 14.267.003h.093c3.705 0 7.084 1.418 9.634 3.745A14.247 14.247 0 0 1 33.634 0c7.933 0 14.369 6.488 14.37 14.493zM21.662 6.798h4.871c-.337-.542-.71-1.06-1.115-1.552h-2.73a20.229 20.229 0 0 0-1.026 1.552zm-1.627 3.077h7.945a14.773 14.773 0 0 0-.62-1.554h-6.548c-.42.8-.698 1.403-.777 1.554zm-5.122 1.118H12.15l-1.89 4.324-.121-4.324H7.48l-1.32 6.982h1.543l1.015-5.334.285 5.334h1.542l2.335-5.37-1.015 5.37h1.705zm4.811 2.84c0-1.087-.772-1.664-2.234-1.664-.63 0-1.177.08-2.03.299l-.223 1.279.142-.037.244-.062c.364-.098.913-.157 1.4-.157.792 0 1.097.14 1.097.515 0 .104-.02.182-.062.369a7.26 7.26 0 0 0-.69-.044c-1.887 0-2.984.808-2.984 2.19 0 .916.63 1.55 1.544 1.55.771 0 1.361-.218 1.786-.686l-.04.587h1.42l.02-.154.021-.194.04-.288.061-.36.366-2.018c.102-.631.122-.842.122-1.124zm.305 1.706c0 1.673.996 2.546 2.904 2.546.59 0 1.157-.075 1.726-.229l.284-1.422a4.46 4.46 0 0 1-1.767.36c-.974 0-1.482-.335-1.482-.992 0-.054 0-.093.02-.18h3.37c.144-.576.205-.983.205-1.404 0-1.26-.894-2.063-2.294-2.063-1.706.003-2.966 1.437-2.966 3.384zm7.359 5.082h-6.784c.248.54.539 1.052.848 1.552h5.1c.308-.499.587-1.015.836-1.552zm2.53-8.338a13.145 13.145 0 0 0-1.522-.112c-1.91 0-2.58.873-2.58 1.922 0 .716.407 1.212 1.32 1.583.69.283.792.367.792.627 0 .354-.304.512-.974.512-.527 0-.996-.068-1.544-.224l-.244 1.31.081.016.305.056c.103.021.264.037.468.052.406.03.71.047.933.047 1.828 0 2.66-.6 2.66-1.895 0-.779-.346-1.236-1.218-1.581-.71-.288-.792-.352-.792-.618 0-.305.284-.461.833-.461.346 0 .792.03 1.24.083zm1.827 3.999c0-.053 0-.131.021-.234l.446-2.37h.874l.244-1.381h-.873l.243-1.304h-1.684l-.793 4.336-.08.45-.102.558c-.02.18-.04.35-.04.51 0 .805.466 1.248 1.34 1.248.386 0 .751-.057 1.218-.186l.223-1.26a1.518 1.518 0 0 1-.445.055c-.408-.002-.592-.127-.592-.422zM36.7 13.91l.204.042.606-1.605c-.142-.057-.162-.057-.182-.062-.082-.02-.145-.031-.145-.034a1.39 1.39 0 0 0-.183-.015c-.55 0-.954.253-1.482.924l.162-.862h-1.543l-1.036 5.68h1.706c.61-3.473.872-4.083 1.684-4.083.068 0 .128.005.21.015zm6.114 1.49c.04-.33.04-.353.04-.706 0-1.44-.934-2.562-2.702-2.562-2.03 0-3.35 1.365-3.35 3.376 0 1.44.769 2.619 2.702 2.619 1.745.002 3.045-.837 3.31-2.726zm.63 2.13a.447.447 0 0 0-.895 0 .448.448 0 0 0 .894 0zm-.123 0a.33.33 0 0 1-.325.34.346.346 0 0 1-.345-.34c0-.185.163-.336.345-.336a.33.33 0 0 1 .325.336zm-.225.028a.109.109 0 0 0 .062-.102c0-.04-.021-.08-.041-.098a.224.224 0 0 0-.103-.023h-.163v.393h.082v-.153h.061l.062.153h.102zm-.04-.104c0 .017 0 .036-.02.045-.02.008-.04.008-.04.008h-.062v-.101h.042c.02 0 .06 0 .06.009.02.008.02.024.02.039zm-19.289-3.268v.294l-1.889-.004c.163-.658.549-1.02 1.097-1.02.508 0 .792.269.792.73zm-5.91 1.259c-.04.84-.527 1.422-1.218 1.422-.385 0-.609-.226-.609-.58 0-.573.488-.864 1.44-.863.123 0 .204.002.387.02zm23.189-.771c0 .247-.02.474-.06.68-.143.884-.933 1.393-1.3 1.393-.61.012-.975-.506-.975-1.278 0-.912.527-1.947 1.401-1.947.691-.002.934.56.934 1.152z"/><path fill="#fff" d="M47.026 22.546a.475.475 0 0 1-.233.407.47.47 0 0 1-.46 0 .471.471 0 0 1-.173-.64.435.435 0 0 1 .174-.173.463.463 0 0 1 .228-.062c.079 0 .154.021.227.062a.462.462 0 0 1 .237.406zm-.366.004c.041-.018.06-.059.06-.102 0-.039-.019-.078-.04-.098a.218.218 0 0 0-.1-.022h-.164v.392h.082v-.154h.06l.062.154h.1zm-.04-.103c0 .018 0 .037-.02.046-.02.008-.04.008-.04.008h-.062v-.1h.04c.021 0 .062 0 .062.007.02.008.02.024.02.04zm1.385-7.954v.007c.002 8.005-6.428 14.497-14.365 14.499a14.242 14.242 0 0 1-9.646-3.75l.037-.03-.001-.002h.003a14.47 14.47 0 0 0 1.46-1.553h-2.969c.455.562.937 1.1 1.47 1.584a14.242 14.242 0 0 1-9.634 3.746C6.428 28.994-.01 22.5-.01 14.499-.01 6.529 6.378.055 14.267.003h.093c3.705 0 7.084 1.418 9.634 3.745A14.247 14.247 0 0 1 33.634 0c7.933 0 14.369 6.488 14.37 14.493zM21.662 6.798h4.871c-.337-.542-.71-1.06-1.115-1.552h-2.73a20.229 20.229 0 0 0-1.026 1.552zm-1.627 3.077h7.945a14.773 14.773 0 0 0-.62-1.554h-6.548c-.42.8-.698 1.403-.777 1.554zm-5.122 1.118H12.15l-1.89 4.324-.121-4.324H7.48l-1.32 6.982h1.543l1.015-5.334.285 5.334h1.542l2.335-5.37-1.015 5.37h1.705zm4.811 2.84c0-1.087-.772-1.664-2.234-1.664-.63 0-1.177.08-2.03.299l-.223 1.279.142-.037.244-.062c.364-.098.913-.157 1.4-.157.792 0 1.097.14 1.097.515 0 .104-.02.182-.062.369a7.26 7.26 0 0 0-.69-.044c-1.887 0-2.984.808-2.984 2.19 0 .916.63 1.55 1.544 1.55.771 0 1.361-.218 1.786-.686l-.04.587h1.42l.02-.154.021-.194.04-.288.061-.36.366-2.018c.102-.631.122-.842.122-1.124zm.305 1.706c0 1.673.996 2.546 2.904 2.546.59 0 1.157-.075 1.726-.229l.284-1.422a4.46 4.46 0 0 1-1.767.36c-.974 0-1.482-.335-1.482-.992 0-.054 0-.093.02-.18h3.37c.144-.576.205-.983.205-1.404 0-1.26-.894-2.063-2.294-2.063-1.706.003-2.966 1.437-2.966 3.384zm7.359 5.082h-6.784c.248.54.539 1.052.848 1.552h5.1c.308-.499.587-1.015.836-1.552zm2.53-8.338a13.145 13.145 0 0 0-1.522-.112c-1.91 0-2.58.873-2.58 1.922 0 .716.407 1.212 1.32 1.583.69.283.792.367.792.627 0 .354-.304.512-.974.512-.527 0-.996-.068-1.544-.224l-.244 1.31.081.016.305.056c.103.021.264.037.468.052.406.03.71.047.933.047 1.828 0 2.66-.6 2.66-1.895 0-.779-.346-1.236-1.218-1.581-.71-.288-.792-.352-.792-.618 0-.305.284-.461.833-.461.346 0 .792.03 1.24.083zm1.827 3.999c0-.053 0-.131.021-.234l.446-2.37h.874l.244-1.381h-.873l.243-1.304h-1.684l-.793 4.336-.08.45-.102.558c-.02.18-.04.35-.04.51 0 .805.466 1.248 1.34 1.248.386 0 .751-.057 1.218-.186l.223-1.26a1.518 1.518 0 0 1-.445.055c-.408-.002-.592-.127-.592-.422zM36.7 13.91l.204.042.606-1.605c-.142-.057-.162-.057-.182-.062-.082-.02-.145-.031-.145-.034a1.39 1.39 0 0 0-.183-.015c-.55 0-.954.253-1.482.924l.162-.862h-1.543l-1.036 5.68h1.706c.61-3.473.872-4.083 1.684-4.083.068 0 .128.005.21.015zm6.114 1.49c.04-.33.04-.353.04-.706 0-1.44-.934-2.562-2.702-2.562-2.03 0-3.35 1.365-3.35 3.376 0 1.44.769 2.619 2.702 2.619 1.745.002 3.045-.837 3.31-2.726zm.63 2.13a.447.447 0 0 0-.895 0 .448.448 0 0 0 .894 0zm-.123 0a.33.33 0 0 1-.325.34.346.346 0 0 1-.345-.34c0-.185.163-.336.345-.336a.33.33 0 0 1 .325.336zm-.225.028a.109.109 0 0 0 .062-.102c0-.04-.021-.08-.041-.098a.224.224 0 0 0-.103-.023h-.163v.393h.082v-.153h.061l.062.153h.102zm-.04-.104c0 .017 0 .036-.02.045-.02.008-.04.008-.04.008h-.062v-.101h.042c.02 0 .06 0 .06.009.02.008.02.024.02.039zm-19.289-3.268v.294l-1.889-.004c.163-.658.549-1.02 1.097-1.02.508 0 .792.269.792.73zm-5.91 1.259c-.04.84-.527 1.422-1.218 1.422-.385 0-.609-.226-.609-.58 0-.573.488-.864 1.44-.863.123 0 .204.002.387.02zm23.189-.771c0 .247-.02.474-.06.68-.143.884-.933 1.393-1.3 1.393-.61.012-.975-.506-.975-1.278 0-.912.527-1.947 1.401-1.947.691-.002.934.56.934 1.152z"/></g></g></svg>