<svg xmlns="http://www.w3.org/2000/svg" width="42" height="26" viewBox="0 0 42 26"><g><g><path d="M42 13c0 7.179-5.873 13.02-13.092 13.02-2.87 0-5.64-.933-7.908-2.645a13.115 13.115 0 0 1-7.908 2.645C5.873 26.02 0 20.179 0 13 0 5.82 5.873-.02 13.092-.02c2.87 0 5.64.933 7.908 2.644A13.113 13.113 0 0 1 28.908-.02C36.127-.02 42 5.82 42 13zM19.904 7.38h2.191c-.323-.51-.69-.994-1.095-1.443-.406.449-.773.933-1.096 1.443zm-1.557 4.396h5.306a10.42 10.42 0 0 0-.417-1.948h-4.472c-.2.635-.34 1.286-.417 1.948zm.417 4.396h4.472c.2-.635.34-1.286.417-1.948h-5.306c.077.662.216 1.313.417 1.948zm3.332 2.447h-2.192c.323.51.69.995 1.096 1.444.406-.45.772-.933 1.096-1.444zM39.538 13c0-5.83-4.77-10.572-10.631-10.572-2.182 0-4.292.663-6.064 1.888a13.09 13.09 0 0 1 2.4 3.833c.624 1.544.94 3.176.94 4.852 0 1.675-.316 3.308-.94 4.852a13.085 13.085 0 0 1-2.4 3.832 10.651 10.651 0 0 0 6.064 1.889c5.862 0 10.631-4.743 10.631-10.573z"/><path fill="#fff" d="M42 13c0 7.179-5.873 13.02-13.092 13.02-2.87 0-5.64-.933-7.908-2.645a13.115 13.115 0 0 1-7.908 2.645C5.873 26.02 0 20.179 0 13 0 5.82 5.873-.02 13.092-.02c2.87 0 5.64.933 7.908 2.644A13.113 13.113 0 0 1 28.908-.02C36.127-.02 42 5.82 42 13zM19.904 7.38h2.191c-.323-.51-.69-.994-1.095-1.443-.406.449-.773.933-1.096 1.443zm-1.557 4.396h5.306a10.42 10.42 0 0 0-.417-1.948h-4.472c-.2.635-.34 1.286-.417 1.948zm.417 4.396h4.472c.2-.635.34-1.286.417-1.948h-5.306c.077.662.216 1.313.417 1.948zm3.332 2.447h-2.192c.323.51.69.995 1.096 1.444.406-.45.772-.933 1.096-1.444zM39.538 13c0-5.83-4.77-10.572-10.631-10.572-2.182 0-4.292.663-6.064 1.888a13.09 13.09 0 0 1 2.4 3.833c.624 1.544.94 3.176.94 4.852 0 1.675-.316 3.308-.94 4.852a13.085 13.085 0 0 1-2.4 3.832 10.651 10.651 0 0 0 6.064 1.889c5.862 0 10.631-4.743 10.631-10.573z"/></g></g></svg>