<svg xmlns="http://www.w3.org/2000/svg" width="50" height="14" viewBox="0 0 50 14"><g><g><path d="M9.26 3.557c0 1.152-.459 2.081-1.39 2.785-.925.702-2.214 1.053-3.878 1.055h-.39a.702.702 0 0 0-.652.533l-.466 2.086a.701.701 0 0 1-.654.534H.47c-.296 0-.481-.243-.412-.534L1.97 1.424a.717.717 0 0 1 .654-.536L5.466.886c.616.006 1.147.045 1.607.131.452.088.847.236 1.182.448.321.21.58.489.744.827.18.338.26.76.261 1.265zm-2.584.222c.002-.375-.13-.658-.392-.837-.266-.18-.663-.272-1.184-.272l-.446.002a.694.694 0 0 0-.648.533l-.41 1.825c-.064.294.118.535.414.535h.333c.737 0 1.31-.155 1.72-.466.41-.31.621-.75.613-1.32zm41.128-2.22v.205l-.138.028-.13.011-.309-.114-.105-.36V.602h-.152V.408h.152v-.39h.225v.39h.455v.194h-.455v.625l.002.168.033.113.071.071.14.023.114-.017.085-.026zm2.203-.67v.887h-.222v-.78L49.77.828l-.028-.132-.08-.079-.145-.027-.186.048-.189.123.004.067.004.072v.874h-.22v-.78l-.012-.17-.032-.13-.075-.079-.15-.028-.185.047-.185.12v1.019h-.22V.408h.22V.56l.21-.14.221-.05.23.057.142.162.244-.17.24-.05.324.139zM16.334 4.91l-.024.338-.051.362-.992 4.43a.712.712 0 0 1-.586.526l-.018.008h-1.264l-.005-.006c-.258-.026-.419-.251-.363-.525v-.002l.003-.01.051-.224-.007-.011-.513.35-.558.32-.66.233c-.202.05-.486.08-.854.082-.58 0-1.066-.166-1.434-.505-.366-.346-.554-.793-.554-1.334 0-.574.13-1.064.39-1.468.268-.402.653-.718 1.17-.953.484-.228 1.065-.395 1.727-.49a22.108 22.108 0 0 1 2.007-.225l.196-.125.024-.198c0-.305-.137-.516-.41-.638-.278-.12-.694-.18-1.239-.18-.368-.005-.833.072-1.274.176-.462.106-.588.177-.814.247-.105.038-.357.055-.263-.396l.167-.706s.081-.533.599-.65c.25-.056.29-.068.697-.133a10.436 10.436 0 0 1 1.647-.132c1.108 0 1.919.15 2.432.448.514.298.777.763.773 1.39zm-2.691 2.402l-.094-.17c-.08.002-.695.074-1.006.114-.349.05-.65.123-.897.208l-.577.406c-.136.173-.2.4-.2.685l.263.526c.178.103.44.153.776.153.22 0 .46-.053.711-.159l.535-.285.213-.289c.083-.339.257-1.092.276-1.189zm27.413-2.4l-.03.34-.052.363-.995 4.425a.704.704 0 0 1-.579.53l-.02.006h-1.263l-.002-.004c-.262-.025-.423-.252-.362-.526l-.002-.004.005-.005.047-.226-.01-.012-.509.354-.563.319-.657.231c-.203.054-.488.079-.853.083-.581 0-1.062-.17-1.432-.508-.37-.344-.557-.79-.557-1.336 0-.57.128-1.058.39-1.462.266-.403.656-.719 1.172-.955.484-.23 1.067-.395 1.727-.49a20.93 20.93 0 0 1 2.01-.223l.193-.128.021-.197c0-.302-.135-.515-.41-.637-.277-.121-.693-.181-1.235-.181-.37-.002-.839.073-1.278.176-.458.11-.58.179-.807.248-.115.035-.36.056-.267-.396l.166-.705s.08-.535.597-.65c.252-.056.292-.07.7-.13.55-.092 1.098-.136 1.646-.136 1.105 0 1.915.15 2.431.45.519.297.778.76.777 1.386zM38.358 7.32l-.096-.17c-.079 0-.691.075-1 .115a4.95 4.95 0 0 0-.897.208c-.25.1-.45.237-.582.404-.13.176-.195.4-.195.687l.266.524c.172.103.428.154.774.154.217 0 .457-.054.709-.159l.53-.283.221-.291a42.03 42.03 0 0 0 .27-1.189zm-4.385-3.735c0 1.152-.465 2.08-1.384 2.789-.93.7-2.221 1.054-3.887 1.054h-.39c-.294-.002-.587.242-.654.532l-.46 2.088c-.07.294-.366.533-.655.531l-1.363.002c-.29 0-.48-.24-.41-.532l1.914-8.597a.712.712 0 0 1 .649-.533l2.845-.002c.612 0 1.15.046 1.601.129.46.086.852.235 1.183.447.323.215.579.49.749.83.172.335.257.76.262 1.262zm-2.586.227c-.003-.375-.13-.657-.396-.837-.267-.18-.66-.269-1.183-.272l-.441.003c-.295-.003-.59.242-.65.533l-.413 1.821c-.065.293.124.538.417.535h.338c.734 0 1.307-.155 1.717-.46.409-.313.614-.752.61-1.323zm13.997-2.29l-1.822 8.52-.065.102c-.106.24-.34.433-.587.433h-1.266l-.02-.03c-.242-.037-.4-.235-.343-.498l-.002-.006.056-.246 1.704-7.99.061-.279.068-.108c.11-.235.335-.427.584-.427h1.22c.292-.004.47.234.408.528zM24.772 3.976l-5.422 9.462c-.174.295-.56.533-.853.533l-1.41.002c-.292 0-.388-.24-.21-.534l1.205-2.166s.098-.126.011-.831c-.185-1.28-1.11-6.715-1.11-6.715-.067-.294.113-.536.407-.536l1.219-.002c.373 0 .674.254.741.55l.607 3.77.226.004c.189-.347 2.138-3.798 2.138-3.798.186-.29.563-.535.856-.535 0 0 1.31.004 1.631 0 .485-.011-.036.797-.036.796z"/><path fill="#fff" d="M9.26 3.557c0 1.152-.459 2.081-1.39 2.785-.925.702-2.214 1.053-3.878 1.055h-.39a.702.702 0 0 0-.652.533l-.466 2.086a.701.701 0 0 1-.654.534H.47c-.296 0-.481-.243-.412-.534L1.97 1.424a.717.717 0 0 1 .654-.536L5.466.886c.616.006 1.147.045 1.607.131.452.088.847.236 1.182.448.321.21.58.489.744.827.18.338.26.76.261 1.265zm-2.584.222c.002-.375-.13-.658-.392-.837-.266-.18-.663-.272-1.184-.272l-.446.002a.694.694 0 0 0-.648.533l-.41 1.825c-.064.294.118.535.414.535h.333c.737 0 1.31-.155 1.72-.466.41-.31.621-.75.613-1.32zm41.128-2.22v.205l-.138.028-.13.011-.309-.114-.105-.36V.602h-.152V.408h.152v-.39h.225v.39h.455v.194h-.455v.625l.002.168.033.113.071.071.14.023.114-.017.085-.026zm2.203-.67v.887h-.222v-.78L49.77.828l-.028-.132-.08-.079-.145-.027-.186.048-.189.123.004.067.004.072v.874h-.22v-.78l-.012-.17-.032-.13-.075-.079-.15-.028-.185.047-.185.12v1.019h-.22V.408h.22V.56l.21-.14.221-.05.23.057.142.162.244-.17.24-.05.324.139zM16.334 4.91l-.024.338-.051.362-.992 4.43a.712.712 0 0 1-.586.526l-.018.008h-1.264l-.005-.006c-.258-.026-.419-.251-.363-.525v-.002l.003-.01.051-.224-.007-.011-.513.35-.558.32-.66.233c-.202.05-.486.08-.854.082-.58 0-1.066-.166-1.434-.505-.366-.346-.554-.793-.554-1.334 0-.574.13-1.064.39-1.468.268-.402.653-.718 1.17-.953.484-.228 1.065-.395 1.727-.49a22.108 22.108 0 0 1 2.007-.225l.196-.125.024-.198c0-.305-.137-.516-.41-.638-.278-.12-.694-.18-1.239-.18-.368-.005-.833.072-1.274.176-.462.106-.588.177-.814.247-.105.038-.357.055-.263-.396l.167-.706s.081-.533.599-.65c.25-.056.29-.068.697-.133a10.436 10.436 0 0 1 1.647-.132c1.108 0 1.919.15 2.432.448.514.298.777.763.773 1.39zm-2.691 2.402l-.094-.17c-.08.002-.695.074-1.006.114-.349.05-.65.123-.897.208l-.577.406c-.136.173-.2.4-.2.685l.263.526c.178.103.44.153.776.153.22 0 .46-.053.711-.159l.535-.285.213-.289c.083-.339.257-1.092.276-1.189zm27.413-2.4l-.03.34-.052.363-.995 4.425a.704.704 0 0 1-.579.53l-.02.006h-1.263l-.002-.004c-.262-.025-.423-.252-.362-.526l-.002-.004.005-.005.047-.226-.01-.012-.509.354-.563.319-.657.231c-.203.054-.488.079-.853.083-.581 0-1.062-.17-1.432-.508-.37-.344-.557-.79-.557-1.336 0-.57.128-1.058.39-1.462.266-.403.656-.719 1.172-.955.484-.23 1.067-.395 1.727-.49a20.93 20.93 0 0 1 2.01-.223l.193-.128.021-.197c0-.302-.135-.515-.41-.637-.277-.121-.693-.181-1.235-.181-.37-.002-.839.073-1.278.176-.458.11-.58.179-.807.248-.115.035-.36.056-.267-.396l.166-.705s.08-.535.597-.65c.252-.056.292-.07.7-.13.55-.092 1.098-.136 1.646-.136 1.105 0 1.915.15 2.431.45.519.297.778.76.777 1.386zM38.358 7.32l-.096-.17c-.079 0-.691.075-1 .115a4.95 4.95 0 0 0-.897.208c-.25.1-.45.237-.582.404-.13.176-.195.4-.195.687l.266.524c.172.103.428.154.774.154.217 0 .457-.054.709-.159l.53-.283.221-.291a42.03 42.03 0 0 0 .27-1.189zm-4.385-3.735c0 1.152-.465 2.08-1.384 2.789-.93.7-2.221 1.054-3.887 1.054h-.39c-.294-.002-.587.242-.654.532l-.46 2.088c-.07.294-.366.533-.655.531l-1.363.002c-.29 0-.48-.24-.41-.532l1.914-8.597a.712.712 0 0 1 .649-.533l2.845-.002c.612 0 1.15.046 1.601.129.46.086.852.235 1.183.447.323.215.579.49.749.83.172.335.257.76.262 1.262zm-2.586.227c-.003-.375-.13-.657-.396-.837-.267-.18-.66-.269-1.183-.272l-.441.003c-.295-.003-.59.242-.65.533l-.413 1.821c-.065.293.124.538.417.535h.338c.734 0 1.307-.155 1.717-.46.409-.313.614-.752.61-1.323zm13.997-2.29l-1.822 8.52-.065.102c-.106.24-.34.433-.587.433h-1.266l-.02-.03c-.242-.037-.4-.235-.343-.498l-.002-.006.056-.246 1.704-7.99.061-.279.068-.108c.11-.235.335-.427.584-.427h1.22c.292-.004.47.234.408.528zM24.772 3.976l-5.422 9.462c-.174.295-.56.533-.853.533l-1.41.002c-.292 0-.388-.24-.21-.534l1.205-2.166s.098-.126.011-.831c-.185-1.28-1.11-6.715-1.11-6.715-.067-.294.113-.536.407-.536l1.219-.002c.373 0 .674.254.741.55l.607 3.77.226.004c.189-.347 2.138-3.798 2.138-3.798.186-.29.563-.535.856-.535 0 0 1.31.004 1.631 0 .485-.011-.036.797-.036.796z"/></g></g></svg>