<svg xmlns="http://www.w3.org/2000/svg" width="48" height="15" viewBox="0 0 48 15"><g><g><path d="M23.123.263l-2.441 14.5H16.78L19.22.264zm-5.48.014L11.499 14.75l-4.128.007L3.878 2.664c2.511 1.629 4.65 4.212 5.404 6.011l.407 1.494 3.82-9.89zM9.116 7.723C7.824 4.372 4.71 1.584.003.428L.053.14h6.048c.816.032 1.473.295 1.7 1.178zM28.794 4.29c-.008.68.826 1.127 2.19 1.8 2.255 1.031 3.296 2.289 3.279 3.936-.028 3.012-2.693 4.955-6.794 4.955-1.749-.018-3.433-.366-4.346-.772l.549-3.246.502.232c1.281.541 2.111.76 3.673.76 1.121 0 2.321-.446 2.333-1.416.007-.636-.502-1.088-2.023-1.8-1.48-.694-3.44-1.857-3.416-3.94.021-2.818 2.738-4.785 6.593-4.785 1.511 0 2.722.315 3.495.61L34.3 3.765l-.352-.168a7.126 7.126 0 0 0-2.92-.555c-1.527 0-2.235.645-2.235 1.247zm19.202 10.482h-3.619s-.359-1.666-.475-2.172l-4.996-.006c-.151.391-.82 2.178-.82 2.178H33.99l5.792-13.29C40.193.539 40.89.28 41.826.28h3.014zM43.27 9.626l-.904-4.187-.263-1.25c-.202.546-.541 1.424-.52 1.384 0 0-1.233 3.22-1.554 4.053z"/><path fill="#fff" d="M23.123.263l-2.441 14.5H16.78L19.22.264zm-5.48.014L11.499 14.75l-4.128.007L3.878 2.664c2.511 1.629 4.65 4.212 5.404 6.011l.407 1.494 3.82-9.89zM9.116 7.723C7.824 4.372 4.71 1.584.003.428L.053.14h6.048c.816.032 1.473.295 1.7 1.178zM28.794 4.29c-.008.68.826 1.127 2.19 1.8 2.255 1.031 3.296 2.289 3.279 3.936-.028 3.012-2.693 4.955-6.794 4.955-1.749-.018-3.433-.366-4.346-.772l.549-3.246.502.232c1.281.541 2.111.76 3.673.76 1.121 0 2.321-.446 2.333-1.416.007-.636-.502-1.088-2.023-1.8-1.48-.694-3.44-1.857-3.416-3.94.021-2.818 2.738-4.785 6.593-4.785 1.511 0 2.722.315 3.495.61L34.3 3.765l-.352-.168a7.126 7.126 0 0 0-2.92-.555c-1.527 0-2.235.645-2.235 1.247zm19.202 10.482h-3.619s-.359-1.666-.475-2.172l-4.996-.006c-.151.391-.82 2.178-.82 2.178H33.99l5.792-13.29C40.193.539 40.89.28 41.826.28h3.014zM43.27 9.626l-.904-4.187-.263-1.25c-.202.546-.541 1.424-.52 1.384 0 0-1.233 3.22-1.554 4.053z"/></g></g></svg>