<svg xmlns="http://www.w3.org/2000/svg" width="16" height="19" viewBox="0 0 16 19"><g><g><path d="M8.24.5C3.384.5.8 3.66.8 7.107c0 1.598.88 3.591 2.287 4.223.214.098.33.057.378-.145.042-.153.227-.89.317-1.237a.322.322 0 0 0-.075-.313c-.468-.549-.839-1.549-.839-2.487 0-2.403 1.882-4.737 5.085-4.737 2.77 0 4.707 1.826 4.707 4.44 0 2.952-1.539 4.995-3.538 4.995-1.107 0-1.931-.882-1.67-1.973.316-1.3.935-2.697.935-3.633 0-.84-.467-1.536-1.422-1.536-1.127 0-2.04 1.133-2.04 2.654 0 .966.336 1.618.336 1.618s-1.115 4.571-1.322 5.425c-.35 1.446.048 3.787.082 3.988.021.11.144.146.213.055.11-.146 1.457-2.098 1.835-3.509.137-.514.7-2.598.7-2.598.372.68 1.443 1.25 2.584 1.25 3.394 0 5.847-3.028 5.847-6.788C15.188 3.196 12.15.5 8.24.5z"/><path fill="#434343" d="M8.24.5C3.384.5.8 3.66.8 7.107c0 1.598.88 3.591 2.287 4.223.214.098.33.057.378-.145.042-.153.227-.89.317-1.237a.322.322 0 0 0-.075-.313c-.468-.549-.839-1.549-.839-2.487 0-2.403 1.882-4.737 5.085-4.737 2.77 0 4.707 1.826 4.707 4.44 0 2.952-1.539 4.995-3.538 4.995-1.107 0-1.931-.882-1.67-1.973.316-1.3.935-2.697.935-3.633 0-.84-.467-1.536-1.422-1.536-1.127 0-2.04 1.133-2.04 2.654 0 .966.336 1.618.336 1.618s-1.115 4.571-1.322 5.425c-.35 1.446.048 3.787.082 3.988.021.11.144.146.213.055.11-.146 1.457-2.098 1.835-3.509.137-.514.7-2.598.7-2.598.372.68 1.443 1.25 2.584 1.25 3.394 0 5.847-3.028 5.847-6.788C15.188 3.196 12.15.5 8.24.5z"/></g></g></svg>