<svg xmlns="http://www.w3.org/2000/svg" width="20" height="20" viewBox="0 0 20 20"><g><g><path d="M19.876 19.287l-.589.589a.416.416 0 0 1-.589 0l-5.81-5.81a7.877 7.877 0 0 1-4.972 1.766C3.551 15.832 0 12.28 0 7.916S3.55 0 7.916 0s7.916 3.55 7.916 7.916a7.875 7.875 0 0 1-1.765 4.972l5.81 5.81a.416.416 0 0 1 0 .589zm-5.71-11.371a6.256 6.256 0 0 0-6.25-6.25 6.256 6.256 0 0 0-6.25 6.25 6.257 6.257 0 0 0 6.25 6.25 6.257 6.257 0 0 0 6.25-6.25z"/><path fill="#fff" d="M19.876 19.287l-.589.589a.416.416 0 0 1-.589 0l-5.81-5.81a7.877 7.877 0 0 1-4.972 1.766C3.551 15.832 0 12.28 0 7.916S3.55 0 7.916 0s7.916 3.55 7.916 7.916a7.875 7.875 0 0 1-1.765 4.972l5.81 5.81a.416.416 0 0 1 0 .589zm-5.71-11.371a6.256 6.256 0 0 0-6.25-6.25 6.256 6.256 0 0 0-6.25 6.25 6.257 6.257 0 0 0 6.25 6.25 6.257 6.257 0 0 0 6.25-6.25z"/></g></g></svg>